<?xml version="1.0" standalone="no"?><?xml-stylesheet type="text/css" href="https://www.processon.com/themes/default/mind/icons/icons.css" ?><!DOCTYPE svg PUBLIC "-//W3C//DTD SVG 1.1//EN" "http://www.w3.org/Graphics/SVG/1.1/DTD/svg11.dtd">
<svg xmlns="http://www.w3.org/2000/svg" version="1.1" xlink="http://www.w3.org/1999/xlink" id="mind-svg-con" width="692px" height="826.3500061035156px" style="position: absolute; left: 0px; top: 0px; width: 692px; height: 826.35px; background: rgb(247, 247, 247); z-index: 999;"><defs></defs><g id="svgbackgroundid"><defs></defs><rect x="0" y="0" width="692" height="826.3500061035156" fill="#F7F7F7"></rect></g><g transform="translate(-9896, -9509.000396728516)" id="sdjakdjak5"><defs></defs><g class="svg-topic-con" transform="translate(0.5,0.5)"><path part="right" sub="true" id="line_ce15f0b0ddad" d="M 10000 9935.50039100647 L 10069 9935.50039100647 C 10109 9935.50039100647 10109 9592.5 10174 9592.5 L 10266 9592.5" stroke="#0D7C82" fill="none" stroke-linecap="round" stroke-width="3"></path><path part="right" sub="true" id="line_921fd1ece36f" d="M 10000 9935.50039100647 L 10069 9935.50039100647 C 10109 9935.50039100647 10109 9791 10174 9791 L 10266 9791" stroke="#3D5EC2" fill="none" stroke-linecap="round" stroke-width="3"></path><path part="right" sub="true" id="line_254eb3618904" d="M 10000 9935.50039100647 L 10069 9935.50039100647 C 10109 9935.50039100647 10109 10013.5 10174 10013.5 L 10234 10013.5" stroke="#FCB52A" fill="none" stroke-linecap="round" stroke-width="3"></path><path part="right" sub="true" id="line_c6f6de61ae0f" d="M 10000 9935.50039100647 L 10069 9935.50039100647 C 10109 9935.50039100647 10109 10212 10174 10212 L 10266 10212" stroke="#DD489D" fill="none" stroke-linecap="round" stroke-width="3"></path></g><g class="svg-connection-con" transform="translate(0.5,0.5)"></g><g class="svg-freesums-con" transform="translate(0.5,0.5)"></g><g class="svg-freebos-con" transform="translate(0.5,0.5)"></g></g><g id="c6f6de61ae0f"><rect x="278" y="672.8875122070312" rx="1px" ry="1px" width="92" height="29" style="fill: transparent; stroke:none;"></rect><g><text text-anchor="start" align="top" anchor="start" font-size="16px" font-weight="normal" fill="rgb(13, 11, 34)" style="font-size:16px;font-family:微软雅黑;color:#0D0B22;font-style:normal;text-align:left;font-weight:normal;font-style: normal;"><tspan x="292" y="694.1625061035156"><tspan>循环系统</tspan></tspan></text></g></g><g id="6ad85c5e83b2"><rect x="446" y="581" rx="1px" ry="1px" width="70" height="29" style="fill: transparent; stroke:none;"></rect><g><text text-anchor="start" align="top" anchor="start" font-size="13px" font-weight="400" fill="rgb(13, 11, 34)" style="font-size:13px;font-family:微软雅黑;color:#0D0B22;font-style:normal;text-align:left;font-weight:400;font-style: normal;"><tspan x="455" y="601.0874938964844"><tspan>事件循环</tspan></tspan></text></g></g><g id="aa3e444bb0f5"><rect x="446" y="627.0874938964844" rx="1px" ry="1px" width="70" height="29" style="fill: transparent; stroke:none;"></rect><g><text text-anchor="start" align="top" anchor="start" font-size="13px" font-weight="400" fill="rgb(13, 11, 34)" style="font-size:13px;font-family:微软雅黑;color:#0D0B22;font-style:normal;text-align:left;font-weight:400;font-style: normal;"><tspan x="455" y="647.1749877929688"><tspan>消息队列</tspan></tspan></text></g></g><g id="841ca13c9c31"><rect x="446" y="673.1749877929688" rx="1px" ry="1px" width="83" height="29" style="fill: transparent; stroke:none;"></rect><g><text text-anchor="start" align="top" anchor="start" font-size="13px" font-weight="400" fill="rgb(13, 11, 34)" style="font-size:13px;font-family:微软雅黑;color:#0D0B22;font-style:normal;text-align:left;font-weight:400;font-style: normal;"><tspan x="455" y="693.2625122070312"><tspan>渲染主线程</tspan></tspan></text></g></g><g id="6838049fdf06"><rect x="446" y="719.2625122070312" rx="1px" ry="1px" width="57" height="29" style="fill: transparent; stroke:none;"></rect><g><text text-anchor="start" align="top" anchor="start" font-size="13px" font-weight="400" fill="rgb(13, 11, 34)" style="font-size:13px;font-family:微软雅黑;color:#0D0B22;font-style:normal;text-align:left;font-weight:400;font-style: normal;"><tspan x="455" y="739.3500061035156"><tspan>宏任务</tspan></tspan></text></g></g><g id="98a5d4d0ea4a"><rect x="446" y="765.3500061035156" rx="1px" ry="1px" width="57" height="29" style="fill: transparent; stroke:none;"></rect><g><text text-anchor="start" align="top" anchor="start" font-size="13px" font-weight="400" fill="rgb(13, 11, 34)" style="font-size:13px;font-family:微软雅黑;color:#0D0B22;font-style:normal;text-align:left;font-weight:400;font-style: normal;"><tspan x="455" y="785.4375"><tspan>微任务</tspan></tspan></text></g></g><g id="254eb3618904"><rect x="278" y="473.7999954223633" rx="1px" ry="1px" width="60" height="30" style="fill: transparent; stroke:none;"></rect><g><text text-anchor="start" align="top" anchor="start" font-size="16px" font-weight="normal" fill="rgb(13, 11, 34)" style="font-size:16px;font-family:微软雅黑;color:#0D0B22;font-style:normal;text-align:left;font-weight:normal;font-style: normal;"><tspan x="292" y="495.0749969482422"><tspan>页面</tspan></tspan></text></g></g><g id="451052d6790a"><rect x="414" y="427.99999618530273" rx="1px" ry="1px" width="83" height="29" style="fill: transparent; stroke:none;"></rect><g><text text-anchor="start" align="top" anchor="start" font-size="13px" font-weight="400" fill="rgb(13, 11, 34)" style="font-size:13px;font-family:微软雅黑;color:#0D0B22;font-style:normal;text-align:left;font-weight:400;font-style: normal;"><tspan x="423" y="448.0874938964844"><tspan>渲染流水线</tspan></tspan></text></g></g><g id="4658c3b5740f"><rect x="414" y="474.0874938964844" rx="1px" ry="1px" width="48" height="29" style="fill: transparent; stroke:none;"></rect><g><text text-anchor="start" align="top" anchor="start" font-size="13px" font-weight="400" fill="rgb(13, 11, 34)" style="font-size:13px;font-family:微软雅黑;color:#0D0B22;font-style:normal;text-align:left;font-weight:400;font-style: normal;"><tspan x="423" y="494.1749954223633"><tspan>重排</tspan></tspan></text></g></g><g id="282638b92af2"><rect x="414" y="520.1750030517578" rx="1px" ry="1px" width="48" height="29" style="fill: transparent; stroke:none;"></rect><g><text text-anchor="start" align="top" anchor="start" font-size="13px" font-weight="400" fill="rgb(13, 11, 34)" style="font-size:13px;font-family:微软雅黑;color:#0D0B22;font-style:normal;text-align:left;font-weight:400;font-style: normal;"><tspan x="423" y="540.2624969482422"><tspan>重绘</tspan></tspan></text></g></g><g id="921fd1ece36f"><rect x="278" y="251.92499542236328" rx="1px" ry="1px" width="92" height="29" style="fill: transparent; stroke:none;"></rect><g><text text-anchor="start" align="top" anchor="start" font-size="16px" font-weight="normal" fill="rgb(13, 11, 34)" style="font-size:16px;font-family:微软雅黑;color:#0D0B22;font-style:normal;text-align:left;font-weight:normal;font-style: normal;"><tspan x="292" y="273.19998931884766"><tspan>数据存储</tspan></tspan></text></g></g><g id="aa0f00eb4e13"><rect x="446" y="136.99998474121094" rx="1px" ry="1px" width="57" height="29" style="fill: transparent; stroke:none;"></rect><g><text text-anchor="start" align="top" anchor="start" font-size="13px" font-weight="400" fill="rgb(13, 11, 34)" style="font-size:13px;font-family:微软雅黑;color:#0D0B22;font-style:normal;text-align:left;font-weight:400;font-style: normal;"><tspan x="455" y="157.08749389648438"><tspan>栈空间</tspan></tspan></text></g></g><g id="c7642ab8bc9e"><rect x="446" y="183.08749389648438" rx="1px" ry="1px" width="57" height="29" style="fill: transparent; stroke:none;"></rect><g><text text-anchor="start" align="top" anchor="start" font-size="13px" font-weight="400" fill="rgb(13, 11, 34)" style="font-size:13px;font-family:微软雅黑;color:#0D0B22;font-style:normal;text-align:left;font-weight:400;font-style: normal;"><tspan x="455" y="203.17498779296875"><tspan>堆空间</tspan></tspan></text></g></g><g id="b6f37c536961"><rect x="446" y="298.2999954223633" rx="1px" ry="1px" width="70" height="29" style="fill: transparent; stroke:none;"></rect><g><text text-anchor="start" align="top" anchor="start" font-size="13px" font-weight="400" fill="rgb(13, 11, 34)" style="font-size:13px;font-family:微软雅黑;color:#0D0B22;font-style:normal;text-align:left;font-weight:400;font-style: normal;"><tspan x="455" y="318.3874931335449"><tspan>垃圾回收</tspan></tspan></text></g></g><g id="d0b6e7036f1b"><rect x="592" y="229.17498779296875" rx="1px" ry="1px" width="70" height="29" style="fill: transparent; stroke:none;"></rect><g><text text-anchor="start" align="top" anchor="start" font-size="13px" font-weight="400" fill="rgb(13, 11, 34)" style="font-size:13px;font-family:微软雅黑;color:#0D0B22;font-style:normal;text-align:left;font-weight:400;font-style: normal;"><tspan x="601" y="249.2624969482422"><tspan>代际假说</tspan></tspan></text></g></g><g id="068562072a2c"><rect x="592" y="275.26248931884766" rx="1px" ry="1px" width="57" height="29" style="fill: transparent; stroke:none;"></rect><g><text text-anchor="start" align="top" anchor="start" font-size="13px" font-weight="400" fill="rgb(13, 11, 34)" style="font-size:13px;font-family:微软雅黑;color:#0D0B22;font-style:normal;text-align:left;font-weight:400;font-style: normal;"><tspan x="601" y="295.34999084472656"><tspan>新生代</tspan></tspan></text></g></g><g id="d8ba550382b2"><rect x="592" y="321.3499946594238" rx="1px" ry="1px" width="57" height="29" style="fill: transparent; stroke:none;"></rect><g><text text-anchor="start" align="top" anchor="start" font-size="13px" font-weight="400" fill="rgb(13, 11, 34)" style="font-size:13px;font-family:微软雅黑;color:#0D0B22;font-style:normal;text-align:left;font-weight:400;font-style: normal;"><tspan x="601" y="341.43749237060547"><tspan>老生代</tspan></tspan></text></g></g><g id="546ecf4b5ffd"><rect x="592" y="367.4374940395355" rx="1px" ry="1px" width="57" height="29" style="fill: transparent; stroke:none;"></rect><g><text text-anchor="start" align="top" anchor="start" font-size="13px" font-weight="400" fill="rgb(13, 11, 34)" style="font-size:13px;font-family:微软雅黑;color:#0D0B22;font-style:normal;text-align:left;font-weight:400;font-style: normal;"><tspan x="601" y="387.5249938964844"><tspan>全停顿</tspan></tspan></text></g></g><g id="ce15f0b0ddad"><rect x="278" y="52.75" rx="1px" ry="1px" width="92" height="30" style="fill: transparent; stroke:none;"></rect><g><text text-anchor="start" align="top" anchor="start" font-size="16px" font-weight="normal" fill="rgb(13, 11, 34)" style="font-size:16px;font-family:微软雅黑;color:#0D0B22;font-style:normal;text-align:left;font-weight:normal;font-style: normal;"><tspan x="292" y="74.02499389648438"><tspan>基础知识</tspan></tspan></text></g></g><g id="e0b7bd87a2ba"><rect x="446" y="30" rx="1px" ry="1px" width="48" height="29" style="fill: transparent; stroke:none;"></rect><g><text text-anchor="start" align="top" anchor="start" font-size="13px" font-weight="400" fill="rgb(13, 11, 34)" style="font-size:13px;font-family:微软雅黑;color:#0D0B22;font-style:normal;text-align:left;font-weight:400;font-style: normal;"><tspan x="455" y="50.087493896484375"><tspan>进程</tspan></tspan></text></g></g><g id="43607f00689e"><rect x="446" y="76.08749389648438" rx="1px" ry="1px" width="48" height="29" style="fill: transparent; stroke:none;"></rect><g><text text-anchor="start" align="top" anchor="start" font-size="13px" font-weight="400" fill="rgb(13, 11, 34)" style="font-size:13px;font-family:微软雅黑;color:#0D0B22;font-style:normal;text-align:left;font-weight:400;font-style: normal;"><tspan x="455" y="96.17498779296875"><tspan>线程</tspan></tspan></text></g></g><g transform="translate(278, 581)" id="sdjakdjak0"><g id="subline_c6f6de61ae0f" transform="translate(0.5,-0.5)"><path id="line_6ad85c5e83b2" d="M 92 123 L 92 123 M 92 123 C 138 123 130 30 168 30 L 238 30" p="c6f6de61ae0f" stroke="#DD489D" fill="none" stroke-linecap="round" stroke-width="3"></path><path id="line_aa3e444bb0f5" d="M 92 123 L 92 123 M 92 123 C 138 123 130 76 168 76 L 238 76" p="c6f6de61ae0f" stroke="#DD489D" fill="none" stroke-linecap="round" stroke-width="3"></path><path id="line_841ca13c9c31" d="M 92 123 L 92 123 M 92 123 C 138 123 130 123 168 123 L 251 123" p="c6f6de61ae0f" stroke="#DD489D" fill="none" stroke-linecap="round" stroke-width="3"></path><path id="line_6838049fdf06" d="M 92 123 L 92 123 M 92 123 C 138 123 130 168 168 168 L 225 168" p="c6f6de61ae0f" stroke="#DD489D" fill="none" stroke-linecap="round" stroke-width="3"></path><path id="line_98a5d4d0ea4a" d="M 92 123 L 92 123 M 92 123 C 138 123 130 214 168 214 L 225 214" p="c6f6de61ae0f" stroke="#DD489D" fill="none" stroke-linecap="round" stroke-width="3"></path></g><g transform="translate(0.5,0)"></g><g class="svg-summary-con" transform="translate(0.5,0.5)"></g><g class="svg-boundary-con" transform="translate(0.5,0.5)"></g></g><g transform="translate(278, 427.99999618530273)" id="sdjakdjak1"><g id="subline_254eb3618904" transform="translate(0.5,-0.5)"><path id="line_451052d6790a" d="M 60 78 L 60 78 M 60 78 C 106 78 98 30 136 30 L 219 30" p="254eb3618904" stroke="#FCB52A" fill="none" stroke-linecap="round" stroke-width="3"></path><path id="line_4658c3b5740f" d="M 60 78 L 60 78 M 60 78 C 106 78 98 77 136 77 L 184 77" p="254eb3618904" stroke="#FCB52A" fill="none" stroke-linecap="round" stroke-width="3"></path><path id="line_282638b92af2" d="M 60 78 L 60 78 M 60 78 C 106 78 98 122 136 122 L 184 122" p="254eb3618904" stroke="#FCB52A" fill="none" stroke-linecap="round" stroke-width="3"></path></g><g transform="translate(0.5,0)"></g><g class="svg-summary-con" transform="translate(0.5,0.5)"></g><g class="svg-boundary-con" transform="translate(0.5,0.5)"></g></g><g transform="translate(278, 136.99998474121094)" id="sdjakdjak2"><g id="subline_921fd1ece36f" transform="translate(0.5,-0.5)"><path id="line_aa0f00eb4e13" d="M 92 146 L 92 146 M 92 146 C 138 146 130 30 168 30 L 225 30" p="921fd1ece36f" stroke="#3D5EC2" fill="none" stroke-linecap="round" stroke-width="3"></path><path id="line_c7642ab8bc9e" d="M 92 146 L 92 146 M 92 146 C 138 146 130 76 168 76 L 225 76" p="921fd1ece36f" stroke="#3D5EC2" fill="none" stroke-linecap="round" stroke-width="3"></path><path id="line_b6f37c536961" d="M 92 146 L 92 146 M 92 146 C 138 146 130 191 168 191 L 238 191" p="921fd1ece36f" stroke="#3D5EC2" fill="none" stroke-linecap="round" stroke-width="3"></path><path id="line_d0b6e7036f1b" d="M 238 191 L 238 191 M 238 191 C 284 191 276 122 314 122 L 384 122" p="b6f37c536961" stroke="#3D5EC2" fill="none" stroke-linecap="round" stroke-width="3"></path><path id="line_068562072a2c" d="M 238 191 L 238 191 M 238 191 C 284 191 276 168 314 168 L 371 168" p="b6f37c536961" stroke="#3D5EC2" fill="none" stroke-linecap="round" stroke-width="3"></path><path id="line_d8ba550382b2" d="M 238 191 L 238 191 M 238 191 C 284 191 276 214 314 214 L 371 214" p="b6f37c536961" stroke="#3D5EC2" fill="none" stroke-linecap="round" stroke-width="3"></path><path id="line_546ecf4b5ffd" d="M 238 191 L 238 191 M 238 191 C 284 191 276 260 314 260 L 371 260" p="b6f37c536961" stroke="#3D5EC2" fill="none" stroke-linecap="round" stroke-width="3"></path></g><g transform="translate(0.5,0)"></g><g class="svg-summary-con" transform="translate(0.5,0.5)"></g><g class="svg-boundary-con" transform="translate(0.5,0.5)"></g></g><g transform="translate(278, 30)" id="sdjakdjak3"><g id="subline_ce15f0b0ddad" transform="translate(0.5,-0.5)"><path id="line_e0b7bd87a2ba" d="M 92 55 L 92 55 M 92 55 C 138 55 130 30 168 30 L 216 30" p="ce15f0b0ddad" stroke="#0D7C82" fill="none" stroke-linecap="round" stroke-width="3"></path><path id="line_43607f00689e" d="M 92 55 L 92 55 M 92 55 C 138 55 130 76 168 76 L 216 76" p="ce15f0b0ddad" stroke="#0D7C82" fill="none" stroke-linecap="round" stroke-width="3"></path></g><g transform="translate(0.5,0)"></g><g class="svg-summary-con" transform="translate(0.5,0.5)"></g><g class="svg-boundary-con" transform="translate(0.5,0.5)"></g></g><g transform="translate(30, 392.9999942779541)" id="sdjakdjak4"><g id="subline_root" transform="translate(0.5,-0.5)"></g><g transform="translate(0.5,0)"></g><g class="svg-summary-con" transform="translate(0.5,0.5)"></g><g class="svg-boundary-con" transform="translate(0.5,0.5)"></g></g><g id="root"><rect x="30" y="392.9999942779541" rx="7px" ry="7px" width="148" height="68" style="fill: #ffffff; stroke:none;"></rect><g><text text-anchor="start" align="top" anchor="start" font-size="24px" font-weight="normal" fill="rgb(42, 46, 54)" style="font-size:24px;font-family:微软雅黑;color:#2A2E36;font-style:normal;text-align:left;font-weight:normal;font-style: normal;"><tspan x="68" y="435.3249931335449"><tspan>浏览器</tspan></tspan></text></g></g></svg>
