<?xml version="1.0" standalone="no"?><?xml-stylesheet type="text/css" href="https://www.processon.com/themes/default/mind/icons/icons.css" ?><!DOCTYPE svg PUBLIC "-//W3C//DTD SVG 1.1//EN" "http://www.w3.org/Graphics/SVG/1.1/DTD/svg11.dtd">
<svg xmlns="http://www.w3.org/2000/svg" version="1.1" xlink="http://www.w3.org/1999/xlink" id="mind-svg-con" width="783.0375366210938px" height="1011.0499877929688px" style="position: absolute; left: 0px; top: 0px; width: 783.038px; height: 1011.05px; background: rgb(247, 247, 247); z-index: 999;"><defs></defs><g id="svgbackgroundid"><defs></defs><rect x="0" y="0" width="783.0375366210938" height="1011.0499877929688" fill="#F7F7F7"></rect></g><g transform="translate(-9896, -9416.000396728516)" id="sdjakdjak5"><defs></defs><g class="svg-topic-con" transform="translate(0.5,0.5)"><path part="right" sub="true" id="line_ad7c5202d6d2" d="M 10000 9935.50039100647 L 10069 9935.50039100647 C 10109 9935.50039100647 10109 9499.5 10174 9499.5 L 10250 9499.5" stroke="#F88A35" fill="none" stroke-linecap="round" stroke-width="3"></path><path part="right" sub="true" id="line_91ab1b54350a" d="M 10000 9935.50039100647 L 10069 9935.50039100647 C 10109 9935.50039100647 10109 9629.5 10174 9629.5 L 10250 9629.5" stroke="#FA5465" fill="none" stroke-linecap="round" stroke-width="3"></path><path part="right" sub="true" id="line_ff974dd8a6eb" d="M 10000 9935.50039100647 L 10069 9935.50039100647 C 10109 9935.50039100647 10109 9759.5 10174 9759.5 L 10250 9759.5" stroke="#0FBAB0" fill="none" stroke-linecap="round" stroke-width="3"></path><path part="right" sub="true" id="line_36e86b6546ae" d="M 10000 9935.50039100647 L 10069 9935.50039100647 C 10109 9935.50039100647 10109 10119.5 10174 10119.5 L 10234 10119.5" stroke="#0F80C4" fill="none" stroke-linecap="round" stroke-width="3"></path></g><g class="svg-connection-con" transform="translate(0.5,0.5)"></g><g class="svg-freesums-con" transform="translate(0.5,0.5)"></g><g class="svg-freebos-con" transform="translate(0.5,0.5)"></g></g><g id="36e86b6546ae"><rect x="278" y="673.2375030517578" rx="1px" ry="1px" width="60" height="30" style="fill: transparent; stroke:none;"></rect><g><text text-anchor="start" align="top" anchor="start" font-size="16px" font-weight="normal" fill="rgb(13, 11, 34)" style="font-size:16px;font-family:微软雅黑;color:#0D0B22;font-style:normal;text-align:left;font-weight:normal;font-style: normal;"><tspan x="292" y="694.5124969482422"><tspan>工具</tspan></tspan></text></g></g><g id="c08dfba11ae7"><rect x="414" y="581.3499984741211" rx="1px" ry="1px" width="73" height="29" style="fill: transparent; stroke:none;"></rect><g><text text-anchor="start" align="top" anchor="start" font-size="13px" font-weight="400" fill="rgb(13, 11, 34)" style="font-size:13px;font-family:微软雅黑;color:#0D0B22;font-style:normal;text-align:left;font-weight:400;font-style: normal;"><tspan x="423" y="601.4375"><tspan>webpack</tspan></tspan></text></g></g><g id="f9c6c5d79e6e"><rect x="563.0375366210938" y="558.2999954223633" rx="1px" ry="1px" width="48" height="28" style="fill: transparent; stroke:none;"></rect><g><text text-anchor="start" align="top" anchor="start" font-size="13px" font-weight="400" fill="rgb(13, 11, 34)" style="font-size:13px;font-family:微软雅黑;color:#0D0B22;font-style:normal;text-align:left;font-weight:400;font-style: normal;"><tspan x="572.0375366210938" y="578.3874969482422"><tspan>使用</tspan></tspan></text></g></g><g id="2e6b6d7fd65a"><rect x="687.0375366210938" y="396.99999237060547" rx="1px" ry="1px" width="50" height="29" style="fill: transparent; stroke:none;"></rect><g><text text-anchor="start" align="top" anchor="start" font-size="13px" font-weight="400" fill="rgb(13, 11, 34)" style="font-size:13px;font-family:微软雅黑;color:#0D0B22;font-style:normal;text-align:left;font-weight:400;font-style: normal;"><tspan x="696.0375366210938" y="417.0874938964844"><tspan>entry</tspan></tspan></text></g></g><g id="4c109bdcc8db"><rect x="687.0375366210938" y="443.0874938964844" rx="1px" ry="1px" width="60" height="29" style="fill: transparent; stroke:none;"></rect><g><text text-anchor="start" align="top" anchor="start" font-size="13px" font-weight="400" fill="rgb(13, 11, 34)" style="font-size:13px;font-family:微软雅黑;color:#0D0B22;font-style:normal;text-align:left;font-weight:400;font-style: normal;"><tspan x="696.0375366210938" y="463.17499351501465"><tspan>output</tspan></tspan></text></g></g><g id="bbf14feb6587"><rect x="687.0375366210938" y="489.17499351501465" rx="1px" ry="1px" width="54" height="29" style="fill: transparent; stroke:none;"></rect><g><text text-anchor="start" align="top" anchor="start" font-size="13px" font-weight="400" fill="rgb(13, 11, 34)" style="font-size:13px;font-family:微软雅黑;color:#0D0B22;font-style:normal;text-align:left;font-weight:400;font-style: normal;"><tspan x="696.0375366210938" y="509.2624931335449"><tspan>mode</tspan></tspan></text></g></g><g id="2ba7e55849af"><rect x="687.0375366210938" y="535.2624969482422" rx="1px" ry="1px" width="58" height="29" style="fill: transparent; stroke:none;"></rect><g><text text-anchor="start" align="top" anchor="start" font-size="13px" font-weight="400" fill="rgb(13, 11, 34)" style="font-size:13px;font-family:微软雅黑;color:#0D0B22;font-style:normal;text-align:left;font-weight:400;font-style: normal;"><tspan x="696.0375366210938" y="555.3499984741211"><tspan>loader</tspan></tspan></text></g></g><g id="28fde4c54b7f"><rect x="687.0375366210938" y="581.3499984741211" rx="1px" ry="1px" width="58" height="29" style="fill: transparent; stroke:none;"></rect><g><text text-anchor="start" align="top" anchor="start" font-size="13px" font-weight="400" fill="rgb(13, 11, 34)" style="font-size:13px;font-family:微软雅黑;color:#0D0B22;font-style:normal;text-align:left;font-weight:400;font-style: normal;"><tspan x="696.0375366210938" y="601.4375"><tspan>plugin</tspan></tspan></text></g></g><g id="51ebb33d0cfa"><rect x="687.0375366210938" y="627.4375" rx="1px" ry="1px" width="56" height="29" style="fill: transparent; stroke:none;"></rect><g><text text-anchor="start" align="top" anchor="start" font-size="13px" font-weight="400" fill="rgb(13, 11, 34)" style="font-size:13px;font-family:微软雅黑;color:#0D0B22;font-style:normal;text-align:left;font-weight:400;font-style: normal;"><tspan x="696.0375366210938" y="647.5249938964844"><tspan>chunk</tspan></tspan></text></g></g><g id="e71aa518344a"><rect x="687.0375366210938" y="673.5249938964844" rx="1px" ry="1px" width="62" height="29" style="fill: transparent; stroke:none;"></rect><g><text text-anchor="start" align="top" anchor="start" font-size="13px" font-weight="400" fill="rgb(13, 11, 34)" style="font-size:13px;font-family:微软雅黑;color:#0D0B22;font-style:normal;text-align:left;font-weight:400;font-style: normal;"><tspan x="696.0375366210938" y="693.6125030517578"><tspan>bundle</tspan></tspan></text></g></g><g id="176dac18a43d"><rect x="687.0375366210938" y="719.6124877929688" rx="1px" ry="1px" width="66" height="29" style="fill: transparent; stroke:none;"></rect><g><text text-anchor="start" align="top" anchor="start" font-size="13px" font-weight="400" fill="rgb(13, 11, 34)" style="font-size:13px;font-family:微软雅黑;color:#0D0B22;font-style:normal;text-align:left;font-weight:400;font-style: normal;"><tspan x="696.0375366210938" y="739.7000122070312"><tspan>module</tspan></tspan></text></g></g><g id="96b5021a0846"><rect x="563.0375366210938" y="765.7000122070312" rx="1px" ry="1px" width="48" height="29" style="fill: transparent; stroke:none;"></rect><g><text text-anchor="start" align="top" anchor="start" font-size="13px" font-weight="400" fill="rgb(13, 11, 34)" style="font-size:13px;font-family:微软雅黑;color:#0D0B22;font-style:normal;text-align:left;font-weight:400;font-style: normal;"><tspan x="572.0375366210938" y="785.7875061035156"><tspan>原理</tspan></tspan></text></g></g><g id="048842167445"><rect x="414" y="811.7875061035156" rx="1px" ry="1px" width="54" height="29" style="fill: transparent; stroke:none;"></rect><g><text text-anchor="start" align="top" anchor="start" font-size="13px" font-weight="400" fill="rgb(13, 11, 34)" style="font-size:13px;font-family:微软雅黑;color:#0D0B22;font-style:normal;text-align:left;font-weight:400;font-style: normal;"><tspan x="423" y="831.875"><tspan>rollup</tspan></tspan></text></g></g><g id="e840154d6d07"><rect x="414" y="857.875" rx="1px" ry="1px" width="48" height="29" style="fill: transparent; stroke:none;"></rect><g><text text-anchor="start" align="top" anchor="start" font-size="13px" font-weight="400" fill="rgb(13, 11, 34)" style="font-size:13px;font-family:微软雅黑;color:#0D0B22;font-style:normal;text-align:left;font-weight:400;font-style: normal;"><tspan x="423" y="877.9624938964844"><tspan>vite</tspan></tspan></text></g></g><g id="b887b1aec355"><rect x="414" y="903.9624938964844" rx="1px" ry="1px" width="59" height="29" style="fill: transparent; stroke:none;"></rect><g><text text-anchor="start" align="top" anchor="start" font-size="13px" font-weight="400" fill="rgb(13, 11, 34)" style="font-size:13px;font-family:微软雅黑;color:#0D0B22;font-style:normal;text-align:left;font-weight:400;font-style: normal;"><tspan x="423" y="924.0499877929688"><tspan>vue-cli</tspan></tspan></text></g></g><g id="e07484a02254"><rect x="414" y="950.0499877929688" rx="1px" ry="1px" width="48" height="29" style="fill: transparent; stroke:none;"></rect><g><text text-anchor="start" align="top" anchor="start" font-size="13px" font-weight="400" fill="rgb(13, 11, 34)" style="font-size:13px;font-family:微软雅黑;color:#0D0B22;font-style:normal;text-align:left;font-weight:400;font-style: normal;"><tspan x="423" y="970.1375122070312"><tspan>cra</tspan></tspan></text></g></g><g id="ff974dd8a6eb"><rect x="278" y="312.74998474121094" rx="1px" ry="1px" width="76" height="30" style="fill: transparent; stroke:none;"></rect><g><text text-anchor="start" align="top" anchor="start" font-size="16px" font-weight="normal" fill="rgb(13, 11, 34)" style="font-size:16px;font-family:微软雅黑;color:#0D0B22;font-style:normal;text-align:left;font-weight:normal;font-style: normal;"><tspan x="292" y="334.0249938964844"><tspan>自动化</tspan></tspan></text></g></g><g id="6b7799e17807"><rect x="430" y="289.99998474121094" rx="1px" ry="1px" width="83" height="29" style="fill: transparent; stroke:none;"></rect><g><text text-anchor="start" align="top" anchor="start" font-size="13px" font-weight="400" fill="rgb(13, 11, 34)" style="font-size:13px;font-family:微软雅黑;color:#0D0B22;font-style:normal;text-align:left;font-weight:400;font-style: normal;"><tspan x="439" y="310.0874938964844"><tspan>自动化构建</tspan></tspan></text></g></g><g id="52d19db927cd"><rect x="430" y="336.0874938964844" rx="1px" ry="1px" width="146" height="29" style="fill: transparent; stroke:none;"></rect><g><text text-anchor="start" align="top" anchor="start" font-size="13px" font-weight="400" fill="rgb(13, 11, 34)" style="font-size:13px;font-family:微软雅黑;color:#0D0B22;font-style:normal;text-align:left;font-weight:400;font-style: normal;"><tspan x="439" y="356.1749954223633"><tspan>自动化部署（CI/CD）</tspan></tspan></text></g></g><g id="91ab1b54350a"><rect x="278" y="182.79998779296875" rx="1px" ry="1px" width="76" height="30" style="fill: transparent; stroke:none;"></rect><g><text text-anchor="start" align="top" anchor="start" font-size="16px" font-weight="normal" fill="rgb(13, 11, 34)" style="font-size:16px;font-family:微软雅黑;color:#0D0B22;font-style:normal;text-align:left;font-weight:normal;font-style: normal;"><tspan x="292" y="204.07498168945312"><tspan>规范化</tspan></tspan></text></g></g><g id="660d913ba210"><rect x="430" y="137" rx="1px" ry="1px" width="53" height="29" style="fill: transparent; stroke:none;"></rect><g><text text-anchor="start" align="top" anchor="start" font-size="13px" font-weight="400" fill="rgb(13, 11, 34)" style="font-size:13px;font-family:微软雅黑;color:#0D0B22;font-style:normal;text-align:left;font-weight:400;font-style: normal;"><tspan x="439" y="157.08749389648438"><tspan>ESlint</tspan></tspan></text></g></g><g id="84f6d6a94084"><rect x="430" y="183.08749389648438" rx="1px" ry="1px" width="68" height="29" style="fill: transparent; stroke:none;"></rect><g><text text-anchor="start" align="top" anchor="start" font-size="13px" font-weight="400" fill="rgb(13, 11, 34)" style="font-size:13px;font-family:微软雅黑;color:#0D0B22;font-style:normal;text-align:left;font-weight:400;font-style: normal;"><tspan x="439" y="203.17498779296875"><tspan>Stylelint</tspan></tspan></text></g></g><g id="20feeed477de"><rect x="430" y="229.17498779296875" rx="1px" ry="1px" width="64" height="29" style="fill: transparent; stroke:none;"></rect><g><text text-anchor="start" align="top" anchor="start" font-size="13px" font-weight="400" fill="rgb(13, 11, 34)" style="font-size:13px;font-family:微软雅黑;color:#0D0B22;font-style:normal;text-align:left;font-weight:400;font-style: normal;"><tspan x="439" y="249.2624969482422"><tspan>prettier</tspan></tspan></text></g></g><g id="ad7c5202d6d2"><rect x="278" y="52.75" rx="1px" ry="1px" width="76" height="30" style="fill: transparent; stroke:none;"></rect><g><text text-anchor="start" align="top" anchor="start" font-size="16px" font-weight="normal" fill="rgb(13, 11, 34)" style="font-size:16px;font-family:微软雅黑;color:#0D0B22;font-style:normal;text-align:left;font-weight:normal;font-style: normal;"><tspan x="292" y="74.02499389648438"><tspan>模块化</tspan></tspan></text></g></g><g id="50daa8e86a05"><rect x="430" y="30" rx="1px" ry="1px" width="83" height="29" style="fill: transparent; stroke:none;"></rect><g><text text-anchor="start" align="top" anchor="start" font-size="13px" font-weight="400" fill="rgb(13, 11, 34)" style="font-size:13px;font-family:微软雅黑;color:#0D0B22;font-style:normal;text-align:left;font-weight:400;font-style: normal;"><tspan x="439" y="50.087493896484375"><tspan>commonjs</tspan></tspan></text></g></g><g id="38e981327fa3"><rect x="430" y="76.08749389648438" rx="1px" ry="1px" width="85" height="29" style="fill: transparent; stroke:none;"></rect><g><text text-anchor="start" align="top" anchor="start" font-size="13px" font-weight="400" fill="rgb(13, 11, 34)" style="font-size:13px;font-family:微软雅黑;color:#0D0B22;font-style:normal;text-align:left;font-weight:400;font-style: normal;"><tspan x="439" y="96.17498779296875"><tspan>ES Module</tspan></tspan></text></g></g><g transform="translate(278, 396.99999237060547)" id="sdjakdjak0"><g id="subline_36e86b6546ae" transform="translate(0.5,-0.5)"><path id="line_c08dfba11ae7" d="M 60 308 L 60 308 M 60 308 C 106 308 98 214 136 214 L 209 214" p="36e86b6546ae" stroke="#0F80C4" fill="none" stroke-linecap="round" stroke-width="3"></path><path id="line_f9c6c5d79e6e" d="M 209 214 L 209 214 M 209 214 C 255.03753662109375 214 247.01876831054688 191 285.03753662109375 191 L 333.03753662109375 191" p="c08dfba11ae7" stroke="#0F80C4" fill="none" stroke-linecap="round" stroke-width="3"></path><path id="line_2e6b6d7fd65a" d="M 333.03753662109375 191 L 333.03753662109375 191 M 333.03753662109375 191 C 379.03753662109375 191 371.03753662109375 30 409.03753662109375 30 L 459.03753662109375 30" p="f9c6c5d79e6e" stroke="#0F80C4" fill="none" stroke-linecap="round" stroke-width="3"></path><path id="line_4c109bdcc8db" d="M 333.03753662109375 191 L 333.03753662109375 191 M 333.03753662109375 191 C 379.03753662109375 191 371.03753662109375 76 409.03753662109375 76 L 469.03753662109375 76" p="f9c6c5d79e6e" stroke="#0F80C4" fill="none" stroke-linecap="round" stroke-width="3"></path><path id="line_bbf14feb6587" d="M 333.03753662109375 191 L 333.03753662109375 191 M 333.03753662109375 191 C 379.03753662109375 191 371.03753662109375 122 409.03753662109375 122 L 463.03753662109375 122" p="f9c6c5d79e6e" stroke="#0F80C4" fill="none" stroke-linecap="round" stroke-width="3"></path><path id="line_2ba7e55849af" d="M 333.03753662109375 191 L 333.03753662109375 191 M 333.03753662109375 191 C 379.03753662109375 191 371.03753662109375 168 409.03753662109375 168 L 467.03753662109375 168" p="f9c6c5d79e6e" stroke="#0F80C4" fill="none" stroke-linecap="round" stroke-width="3"></path><path id="line_28fde4c54b7f" d="M 333.03753662109375 191 L 333.03753662109375 191 M 333.03753662109375 191 C 379.03753662109375 191 371.03753662109375 214 409.03753662109375 214 L 467.03753662109375 214" p="f9c6c5d79e6e" stroke="#0F80C4" fill="none" stroke-linecap="round" stroke-width="3"></path><path id="line_51ebb33d0cfa" d="M 333.03753662109375 191 L 333.03753662109375 191 M 333.03753662109375 191 C 379.03753662109375 191 371.03753662109375 260 409.03753662109375 260 L 465.03753662109375 260" p="f9c6c5d79e6e" stroke="#0F80C4" fill="none" stroke-linecap="round" stroke-width="3"></path><path id="line_e71aa518344a" d="M 333.03753662109375 191 L 333.03753662109375 191 M 333.03753662109375 191 C 379.03753662109375 191 371.03753662109375 307 409.03753662109375 307 L 471.03753662109375 307" p="f9c6c5d79e6e" stroke="#0F80C4" fill="none" stroke-linecap="round" stroke-width="3"></path><path id="line_176dac18a43d" d="M 333.03753662109375 191 L 333.03753662109375 191 M 333.03753662109375 191 C 379.03753662109375 191 371.03753662109375 353 409.03753662109375 353 L 475.03753662109375 353" p="f9c6c5d79e6e" stroke="#0F80C4" fill="none" stroke-linecap="round" stroke-width="3"></path><path id="line_96b5021a0846" d="M 209 214 L 209 214 M 209 214 C 255.03753662109375 214 247.01876831054688 399 285.03753662109375 399 L 333.03753662109375 399" p="c08dfba11ae7" stroke="#0F80C4" fill="none" stroke-linecap="round" stroke-width="3"></path><path id="line_048842167445" d="M 60 308 L 60 308 M 60 308 C 106 308 98 445 136 445 L 190 445" p="36e86b6546ae" stroke="#0F80C4" fill="none" stroke-linecap="round" stroke-width="3"></path><path id="line_e840154d6d07" d="M 60 308 L 60 308 M 60 308 C 106 308 98 491 136 491 L 184 491" p="36e86b6546ae" stroke="#0F80C4" fill="none" stroke-linecap="round" stroke-width="3"></path><path id="line_b887b1aec355" d="M 60 308 L 60 308 M 60 308 C 106 308 98 537 136 537 L 195 537" p="36e86b6546ae" stroke="#0F80C4" fill="none" stroke-linecap="round" stroke-width="3"></path><path id="line_e07484a02254" d="M 60 308 L 60 308 M 60 308 C 106 308 98 583 136 583 L 184 583" p="36e86b6546ae" stroke="#0F80C4" fill="none" stroke-linecap="round" stroke-width="3"></path></g><g transform="translate(0.5,0)"></g><g class="svg-summary-con" transform="translate(0.5,0.5)"></g><g class="svg-boundary-con" transform="translate(0.5,0.5)"></g></g><g transform="translate(278, 289.99998474121094)" id="sdjakdjak1"><g id="subline_ff974dd8a6eb" transform="translate(0.5,-0.5)"><path id="line_6b7799e17807" d="M 76 55 L 76 55 M 76 55 C 122 55 114 30 152 30 L 235 30" p="ff974dd8a6eb" stroke="#0FBAB0" fill="none" stroke-linecap="round" stroke-width="3"></path><path id="line_52d19db927cd" d="M 76 55 L 76 55 M 76 55 C 122 55 114 76 152 76 L 298 76" p="ff974dd8a6eb" stroke="#0FBAB0" fill="none" stroke-linecap="round" stroke-width="3"></path></g><g transform="translate(0.5,0)"></g><g class="svg-summary-con" transform="translate(0.5,0.5)"></g><g class="svg-boundary-con" transform="translate(0.5,0.5)"></g></g><g transform="translate(278, 137)" id="sdjakdjak2"><g id="subline_91ab1b54350a" transform="translate(0.5,-0.5)"><path id="line_660d913ba210" d="M 76 78 L 76 78 M 76 78 C 122 78 114 30 152 30 L 205 30" p="91ab1b54350a" stroke="#FA5465" fill="none" stroke-linecap="round" stroke-width="3"></path><path id="line_84f6d6a94084" d="M 76 78 L 76 78 M 76 78 C 122 78 114 77 152 77 L 220 77" p="91ab1b54350a" stroke="#FA5465" fill="none" stroke-linecap="round" stroke-width="3"></path><path id="line_20feeed477de" d="M 76 78 L 76 78 M 76 78 C 122 78 114 122 152 122 L 216 122" p="91ab1b54350a" stroke="#FA5465" fill="none" stroke-linecap="round" stroke-width="3"></path></g><g transform="translate(0.5,0)"></g><g class="svg-summary-con" transform="translate(0.5,0.5)"></g><g class="svg-boundary-con" transform="translate(0.5,0.5)"></g></g><g transform="translate(278, 30)" id="sdjakdjak3"><g id="subline_ad7c5202d6d2" transform="translate(0.5,-0.5)"><path id="line_50daa8e86a05" d="M 76 55 L 76 55 M 76 55 C 122 55 114 30 152 30 L 235 30" p="ad7c5202d6d2" stroke="#F88A35" fill="none" stroke-linecap="round" stroke-width="3"></path><path id="line_38e981327fa3" d="M 76 55 L 76 55 M 76 55 C 122 55 114 76 152 76 L 237 76" p="ad7c5202d6d2" stroke="#F88A35" fill="none" stroke-linecap="round" stroke-width="3"></path></g><g transform="translate(0.5,0)"></g><g class="svg-summary-con" transform="translate(0.5,0.5)"></g><g class="svg-boundary-con" transform="translate(0.5,0.5)"></g></g><g transform="translate(30, 485.9999942779541)" id="sdjakdjak4"><g id="subline_root" transform="translate(0.5,-0.5)"></g><g transform="translate(0.5,0)"></g><g class="svg-summary-con" transform="translate(0.5,0.5)"></g><g class="svg-boundary-con" transform="translate(0.5,0.5)"></g></g><g id="root"><rect x="30" y="485.9999942779541" rx="7px" ry="7px" width="148" height="68" style="fill: #ffffff; stroke:none;"></rect><g><text text-anchor="start" align="top" anchor="start" font-size="24px" font-weight="normal" fill="rgb(42, 46, 54)" style="font-size:24px;font-family:微软雅黑;color:#2A2E36;font-style:normal;text-align:left;font-weight:normal;font-style: normal;"><tspan x="68" y="528.3249931335449"><tspan>工程化</tspan></tspan></text></g></g></svg>
