<?xml version="1.0" standalone="no"?><?xml-stylesheet type="text/css" href="https://www.processon.com/themes/default/mind/icons/icons.css" ?><!DOCTYPE svg PUBLIC "-//W3C//DTD SVG 1.1//EN" "http://www.w3.org/Graphics/SVG/1.1/DTD/svg11.dtd">
<svg xmlns="http://www.w3.org/2000/svg" version="1.1" xlink="http://www.w3.org/1999/xlink" id="mind-svg-con" width="669.7374877929688px" height="705px" style="position: absolute; left: 0px; top: 0px; width: 669.737px; height: 705px; background: rgb(247, 247, 247); z-index: 999;"><defs></defs><g id="svgbackgroundid"><defs></defs><rect x="0" y="0" width="669.7374877929688" height="705" fill="#F7F7F7"></rect></g><g transform="translate(-9896, -9570.000396728516)" id="sdjakdjak6"><defs></defs><g class="svg-topic-con" transform="translate(0.5,0.5)"><path part="right" sub="true" id="line_c08dfba11ae7" d="M 10000 9935.50039100647 L 10069 9935.50039100647 C 10109 9935.50039100647 10109 9814.5 10174 9814.5 L 10270 9814.5" stroke="#7549C5" fill="none" stroke-linecap="round" stroke-width="3"></path><path part="right" sub="true" id="line_048842167445" d="M 10000 9935.50039100647 L 10069 9935.50039100647 C 10109 9935.50039100647 10109 10060.5 10174 10060.5 L 10247 10060.5" stroke="#FD5155" fill="none" stroke-linecap="round" stroke-width="3"></path><path part="right" sub="true" id="line_e840154d6d07" d="M 10000 9935.50039100647 L 10069 9935.50039100647 C 10109 9935.50039100647 10109 10121.5 10174 10121.5 L 10232 10121.5" stroke="#0FBAB0" fill="none" stroke-linecap="round" stroke-width="3"></path><path part="right" sub="true" id="line_b887b1aec355" d="M 10000 9935.50039100647 L 10069 9935.50039100647 C 10109 9935.50039100647 10109 10182.5 10174 10182.5 L 10253 10182.5" stroke="#0F80C4" fill="none" stroke-linecap="round" stroke-width="3"></path><path part="right" sub="true" id="line_e07484a02254" d="M 10000 9935.50039100647 L 10069 9935.50039100647 C 10109 9935.50039100647 10109 10244.5 10174 10244.5 L 10232 10244.5" stroke="#DD489D" fill="none" stroke-linecap="round" stroke-width="3"></path></g><g class="svg-connection-con" transform="translate(0.5,0.5)"></g><g class="svg-freesums-con" transform="translate(0.5,0.5)"></g><g class="svg-freebos-con" transform="translate(0.5,0.5)"></g></g><g id="e07484a02254"><rect x="278" y="644" rx="1px" ry="1px" width="58" height="30" style="fill: transparent; stroke:none;"></rect><g><text text-anchor="start" align="top" anchor="start" font-size="16px" font-weight="normal" fill="rgb(13, 11, 34)" style="font-size:16px;font-family:微软雅黑;color:#0D0B22;font-style:normal;text-align:left;font-weight:normal;font-style: normal;"><tspan x="292" y="665.2749938964844"><tspan>cra</tspan></tspan></text></g></g><g id="b887b1aec355"><rect x="278" y="582" rx="1px" ry="1px" width="79" height="30" style="fill: transparent; stroke:none;"></rect><g><text text-anchor="start" align="top" anchor="start" font-size="16px" font-weight="normal" fill="rgb(13, 11, 34)" style="font-size:16px;font-family:微软雅黑;color:#0D0B22;font-style:normal;text-align:left;font-weight:normal;font-style: normal;"><tspan x="292" y="603.2749938964844"><tspan>vue-cli</tspan></tspan></text></g></g><g id="e840154d6d07"><rect x="278" y="521" rx="1px" ry="1px" width="58" height="30" style="fill: transparent; stroke:none;"></rect><g><text text-anchor="start" align="top" anchor="start" font-size="16px" font-weight="normal" fill="rgb(13, 11, 34)" style="font-size:16px;font-family:微软雅黑;color:#0D0B22;font-style:normal;text-align:left;font-weight:normal;font-style: normal;"><tspan x="292" y="542.2749938964844"><tspan>vite</tspan></tspan></text></g></g><g id="048842167445"><rect x="278" y="460" rx="1px" ry="1px" width="73" height="30" style="fill: transparent; stroke:none;"></rect><g><text text-anchor="start" align="top" anchor="start" font-size="16px" font-weight="normal" fill="rgb(13, 11, 34)" style="font-size:16px;font-family:微软雅黑;color:#0D0B22;font-style:normal;text-align:left;font-weight:normal;font-style: normal;"><tspan x="292" y="481.2749938964844"><tspan>rollup</tspan></tspan></text></g></g><g id="c08dfba11ae7"><rect x="278" y="214.06249237060547" rx="1px" ry="1px" width="96" height="30" style="fill: transparent; stroke:none;"></rect><g><text text-anchor="start" align="top" anchor="start" font-size="16px" font-weight="normal" fill="rgb(13, 11, 34)" style="font-size:16px;font-family:微软雅黑;color:#0D0B22;font-style:normal;text-align:left;font-weight:normal;font-style: normal;"><tspan x="292" y="235.33749389648438"><tspan>webpack</tspan></tspan></text></g></g><g id="f9c6c5d79e6e"><rect x="449.73748779296875" y="191.29999542236328" rx="1px" ry="1px" width="48" height="28" style="fill: transparent; stroke:none;"></rect><g><text text-anchor="start" align="top" anchor="start" font-size="13px" font-weight="400" fill="rgb(13, 11, 34)" style="font-size:13px;font-family:微软雅黑;color:#0D0B22;font-style:normal;text-align:left;font-weight:400;font-style: normal;"><tspan x="458.73748779296875" y="211.38748931884766"><tspan>使用</tspan></tspan></text></g></g><g id="2e6b6d7fd65a"><rect x="573.7374877929688" y="30" rx="1px" ry="1px" width="50" height="29" style="fill: transparent; stroke:none;"></rect><g><text text-anchor="start" align="top" anchor="start" font-size="13px" font-weight="400" fill="rgb(13, 11, 34)" style="font-size:13px;font-family:微软雅黑;color:#0D0B22;font-style:normal;text-align:left;font-weight:400;font-style: normal;"><tspan x="582.7374877929688" y="50.087493896484375"><tspan>entry</tspan></tspan></text></g></g><g id="4c109bdcc8db"><rect x="573.7374877929688" y="76.08749389648438" rx="1px" ry="1px" width="60" height="29" style="fill: transparent; stroke:none;"></rect><g><text text-anchor="start" align="top" anchor="start" font-size="13px" font-weight="400" fill="rgb(13, 11, 34)" style="font-size:13px;font-family:微软雅黑;color:#0D0B22;font-style:normal;text-align:left;font-weight:400;font-style: normal;"><tspan x="582.7374877929688" y="96.17498779296875"><tspan>output</tspan></tspan></text></g></g><g id="bbf14feb6587"><rect x="573.7374877929688" y="122.17498779296875" rx="1px" ry="1px" width="54" height="29" style="fill: transparent; stroke:none;"></rect><g><text text-anchor="start" align="top" anchor="start" font-size="13px" font-weight="400" fill="rgb(13, 11, 34)" style="font-size:13px;font-family:微软雅黑;color:#0D0B22;font-style:normal;text-align:left;font-weight:400;font-style: normal;"><tspan x="582.7374877929688" y="142.2624969482422"><tspan>mode</tspan></tspan></text></g></g><g id="2ba7e55849af"><rect x="573.7374877929688" y="168.2624969482422" rx="1px" ry="1px" width="58" height="29" style="fill: transparent; stroke:none;"></rect><g><text text-anchor="start" align="top" anchor="start" font-size="13px" font-weight="400" fill="rgb(13, 11, 34)" style="font-size:13px;font-family:微软雅黑;color:#0D0B22;font-style:normal;text-align:left;font-weight:400;font-style: normal;"><tspan x="582.7374877929688" y="188.34999084472656"><tspan>loader</tspan></tspan></text></g></g><g id="28fde4c54b7f"><rect x="573.7374877929688" y="214.34999084472656" rx="1px" ry="1px" width="58" height="29" style="fill: transparent; stroke:none;"></rect><g><text text-anchor="start" align="top" anchor="start" font-size="13px" font-weight="400" fill="rgb(13, 11, 34)" style="font-size:13px;font-family:微软雅黑;color:#0D0B22;font-style:normal;text-align:left;font-weight:400;font-style: normal;"><tspan x="582.7374877929688" y="234.43749237060547"><tspan>plugin</tspan></tspan></text></g></g><g id="51ebb33d0cfa"><rect x="573.7374877929688" y="260.43749237060547" rx="1px" ry="1px" width="56" height="29" style="fill: transparent; stroke:none;"></rect><g><text text-anchor="start" align="top" anchor="start" font-size="13px" font-weight="400" fill="rgb(13, 11, 34)" style="font-size:13px;font-family:微软雅黑;color:#0D0B22;font-style:normal;text-align:left;font-weight:400;font-style: normal;"><tspan x="582.7374877929688" y="280.5249938964844"><tspan>chunk</tspan></tspan></text></g></g><g id="e71aa518344a"><rect x="573.7374877929688" y="306.5249938964844" rx="1px" ry="1px" width="62" height="29" style="fill: transparent; stroke:none;"></rect><g><text text-anchor="start" align="top" anchor="start" font-size="13px" font-weight="400" fill="rgb(13, 11, 34)" style="font-size:13px;font-family:微软雅黑;color:#0D0B22;font-style:normal;text-align:left;font-weight:400;font-style: normal;"><tspan x="582.7374877929688" y="326.61249446868896"><tspan>bundle</tspan></tspan></text></g></g><g id="176dac18a43d"><rect x="573.7374877929688" y="352.6124954223633" rx="1px" ry="1px" width="66" height="29" style="fill: transparent; stroke:none;"></rect><g><text text-anchor="start" align="top" anchor="start" font-size="13px" font-weight="400" fill="rgb(13, 11, 34)" style="font-size:13px;font-family:微软雅黑;color:#0D0B22;font-style:normal;text-align:left;font-weight:400;font-style: normal;"><tspan x="582.7374877929688" y="372.6999931335449"><tspan>module</tspan></tspan></text></g></g><g id="96b5021a0846"><rect x="449.73748779296875" y="398.6999969482422" rx="1px" ry="1px" width="48" height="29" style="fill: transparent; stroke:none;"></rect><g><text text-anchor="start" align="top" anchor="start" font-size="13px" font-weight="400" fill="rgb(13, 11, 34)" style="font-size:13px;font-family:微软雅黑;color:#0D0B22;font-style:normal;text-align:left;font-weight:400;font-style: normal;"><tspan x="458.73748779296875" y="418.7874984741211"><tspan>原理</tspan></tspan></text></g></g><g transform="translate(278, 644)" id="sdjakdjak0"><g id="subline_e07484a02254" transform="translate(0.5,-0.5)"></g><g transform="translate(0.5,0)"></g><g class="svg-summary-con" transform="translate(0.5,0.5)"></g><g class="svg-boundary-con" transform="translate(0.5,0.5)"></g></g><g transform="translate(278, 582)" id="sdjakdjak1"><g id="subline_b887b1aec355" transform="translate(0.5,-0.5)"></g><g transform="translate(0.5,0)"></g><g class="svg-summary-con" transform="translate(0.5,0.5)"></g><g class="svg-boundary-con" transform="translate(0.5,0.5)"></g></g><g transform="translate(278, 521)" id="sdjakdjak2"><g id="subline_e840154d6d07" transform="translate(0.5,-0.5)"></g><g transform="translate(0.5,0)"></g><g class="svg-summary-con" transform="translate(0.5,0.5)"></g><g class="svg-boundary-con" transform="translate(0.5,0.5)"></g></g><g transform="translate(278, 460)" id="sdjakdjak3"><g id="subline_048842167445" transform="translate(0.5,-0.5)"></g><g transform="translate(0.5,0)"></g><g class="svg-summary-con" transform="translate(0.5,0.5)"></g><g class="svg-boundary-con" transform="translate(0.5,0.5)"></g></g><g transform="translate(278, 30)" id="sdjakdjak4"><g id="subline_c08dfba11ae7" transform="translate(0.5,-0.5)"><path id="line_f9c6c5d79e6e" d="M 96 216 L 96 216 M 96 216 C 141.73748779296875 216 133.86874389648438 191 171.73748779296875 191 L 219.73748779296875 191" p="c08dfba11ae7" stroke="#7549C5" fill="none" stroke-linecap="round" stroke-width="3"></path><path id="line_2e6b6d7fd65a" d="M 219.73748779296875 191 L 219.73748779296875 191 M 219.73748779296875 191 C 265.73748779296875 191 257.73748779296875 30 295.73748779296875 30 L 345.73748779296875 30" p="f9c6c5d79e6e" stroke="#7549C5" fill="none" stroke-linecap="round" stroke-width="3"></path><path id="line_4c109bdcc8db" d="M 219.73748779296875 191 L 219.73748779296875 191 M 219.73748779296875 191 C 265.73748779296875 191 257.73748779296875 76 295.73748779296875 76 L 355.73748779296875 76" p="f9c6c5d79e6e" stroke="#7549C5" fill="none" stroke-linecap="round" stroke-width="3"></path><path id="line_bbf14feb6587" d="M 219.73748779296875 191 L 219.73748779296875 191 M 219.73748779296875 191 C 265.73748779296875 191 257.73748779296875 122 295.73748779296875 122 L 349.73748779296875 122" p="f9c6c5d79e6e" stroke="#7549C5" fill="none" stroke-linecap="round" stroke-width="3"></path><path id="line_2ba7e55849af" d="M 219.73748779296875 191 L 219.73748779296875 191 M 219.73748779296875 191 C 265.73748779296875 191 257.73748779296875 168 295.73748779296875 168 L 353.73748779296875 168" p="f9c6c5d79e6e" stroke="#7549C5" fill="none" stroke-linecap="round" stroke-width="3"></path><path id="line_28fde4c54b7f" d="M 219.73748779296875 191 L 219.73748779296875 191 M 219.73748779296875 191 C 265.73748779296875 191 257.73748779296875 214 295.73748779296875 214 L 353.73748779296875 214" p="f9c6c5d79e6e" stroke="#7549C5" fill="none" stroke-linecap="round" stroke-width="3"></path><path id="line_51ebb33d0cfa" d="M 219.73748779296875 191 L 219.73748779296875 191 M 219.73748779296875 191 C 265.73748779296875 191 257.73748779296875 260 295.73748779296875 260 L 351.73748779296875 260" p="f9c6c5d79e6e" stroke="#7549C5" fill="none" stroke-linecap="round" stroke-width="3"></path><path id="line_e71aa518344a" d="M 219.73748779296875 191 L 219.73748779296875 191 M 219.73748779296875 191 C 265.73748779296875 191 257.73748779296875 307 295.73748779296875 307 L 357.73748779296875 307" p="f9c6c5d79e6e" stroke="#7549C5" fill="none" stroke-linecap="round" stroke-width="3"></path><path id="line_176dac18a43d" d="M 219.73748779296875 191 L 219.73748779296875 191 M 219.73748779296875 191 C 265.73748779296875 191 257.73748779296875 353 295.73748779296875 353 L 361.73748779296875 353" p="f9c6c5d79e6e" stroke="#7549C5" fill="none" stroke-linecap="round" stroke-width="3"></path><path id="line_96b5021a0846" d="M 96 216 L 96 216 M 96 216 C 141.73748779296875 216 133.86874389648438 399 171.73748779296875 399 L 219.73748779296875 399" p="c08dfba11ae7" stroke="#7549C5" fill="none" stroke-linecap="round" stroke-width="3"></path></g><g transform="translate(0.5,0)"></g><g class="svg-summary-con" transform="translate(0.5,0.5)"></g><g class="svg-boundary-con" transform="translate(0.5,0.5)"></g></g><g transform="translate(30, 331.9999942779541)" id="sdjakdjak5"><g id="subline_root" transform="translate(0.5,-0.5)"></g><g transform="translate(0.5,0)"></g><g class="svg-summary-con" transform="translate(0.5,0.5)"></g><g class="svg-boundary-con" transform="translate(0.5,0.5)"></g></g><g id="root"><rect x="30" y="331.9999942779541" rx="7px" ry="7px" width="148" height="68" style="fill: #ffffff; stroke:none;"></rect><g><text text-anchor="start" align="top" anchor="start" font-size="24px" font-weight="normal" fill="rgb(42, 46, 54)" style="font-size:24px;font-family:微软雅黑;color:#2A2E36;font-style:normal;text-align:left;font-weight:normal;font-style: normal;"><tspan x="68" y="374.3249931335449"><tspan>工程化</tspan></tspan></text></g></g></svg>
