<?xml version="1.0" standalone="no"?><?xml-stylesheet type="text/css" href="https://www.processon.com/themes/default/mind/icons/icons.css" ?><!DOCTYPE svg PUBLIC "-//W3C//DTD SVG 1.1//EN" "http://www.w3.org/Graphics/SVG/1.1/DTD/svg11.dtd">
<svg xmlns="http://www.w3.org/2000/svg" version="1.1" xlink="http://www.w3.org/1999/xlink" id="mind-svg-con" width="796px" height="889.9999923706055px" style="position: absolute; left: 0px; top: 0px; width: 796px; height: 890px; background: rgb(247, 247, 247); z-index: 999;"><defs></defs><g id="svgbackgroundid"><defs></defs><rect x="0" y="0" width="796" height="889.9999923706055" fill="#F7F7F7"></rect></g><g transform="translate(-9878, -9478.000396728516)" id="sdjakdjak3"><defs></defs><g class="svg-topic-con" transform="translate(0.5,0.5)"><path part="right" sub="true" id="line_972269717daa" d="M 10000 9935.50039100647 L 10087 9935.50039100647 C 10127 9935.50039100647 10127 9745 10192 9745 L 10255 9745" stroke="#7549C5" fill="none" stroke-linecap="round" stroke-width="3"></path><path part="right" sub="true" id="line_d07590c17a0a" d="M 10000 9935.50039100647 L 10087 9935.50039100647 C 10127 9935.50039100647 10127 10175.5 10192 10175.5 L 10250 10175.5" stroke="#02ACF4" fill="none" stroke-linecap="round" stroke-width="3"></path></g><g class="svg-connection-con" transform="translate(0.5,0.5)"></g><g class="svg-freesums-con" transform="translate(0.5,0.5)"></g><g class="svg-freebos-con" transform="translate(0.5,0.5)"></g></g><g id="d07590c17a0a"><rect x="314" y="667.0125122070312" rx="1px" ry="1px" width="58" height="30" style="fill: transparent; stroke:none;"></rect><g><text text-anchor="start" align="top" anchor="start" font-size="16px" font-weight="normal" fill="rgb(13, 11, 34)" style="font-size:16px;font-family:微软雅黑;color:#0D0B22;font-style:normal;text-align:left;font-weight:normal;font-style: normal;"><tspan x="328" y="688.2875061035156"><tspan>css</tspan></tspan></text></g></g><g id="0d9ac870f747"><rect x="448" y="552.0874938964844" rx="1px" ry="1px" width="48" height="28" style="fill: transparent; stroke:none;"></rect><g><text text-anchor="start" align="top" anchor="start" font-size="13px" font-weight="400" fill="rgb(13, 11, 34)" style="font-size:13px;font-family:微软雅黑;color:#0D0B22;font-style:normal;text-align:left;font-weight:400;font-style: normal;"><tspan x="457" y="572.1750030517578"><tspan>语言</tspan></tspan></text></g></g><g id="9988803f1d9e"><rect x="572" y="505.99999237060547" rx="1px" ry="1px" width="55" height="29" style="fill: transparent; stroke:none;"></rect><g><text text-anchor="start" align="top" anchor="start" font-size="13px" font-weight="400" fill="rgb(13, 11, 34)" style="font-size:13px;font-family:微软雅黑;color:#0D0B22;font-style:normal;text-align:left;font-weight:400;font-style: normal;"><tspan x="581" y="526.0874938964844"><tspan>@rule</tspan></tspan></text></g></g><g id="68342082378c"><rect x="572" y="552.0874938964844" rx="1px" ry="1px" width="57" height="29" style="fill: transparent; stroke:none;"></rect><g><text text-anchor="start" align="top" anchor="start" font-size="13px" font-weight="400" fill="rgb(13, 11, 34)" style="font-size:13px;font-family:微软雅黑;color:#0D0B22;font-style:normal;text-align:left;font-weight:400;font-style: normal;"><tspan x="581" y="572.1750030517578"><tspan>选择器</tspan></tspan></text></g></g><g id="7576c49c07d8"><rect x="572" y="598.1750030517578" rx="1px" ry="1px" width="48" height="29" style="fill: transparent; stroke:none;"></rect><g><text text-anchor="start" align="top" anchor="start" font-size="13px" font-weight="400" fill="rgb(13, 11, 34)" style="font-size:13px;font-family:微软雅黑;color:#0D0B22;font-style:normal;text-align:left;font-weight:400;font-style: normal;"><tspan x="581" y="618.2624969482422"><tspan>单位</tspan></tspan></text></g></g><g id="a8a8dd603f51"><rect x="448" y="736.4375" rx="1px" ry="1px" width="48" height="29" style="fill: transparent; stroke:none;"></rect><g><text text-anchor="start" align="top" anchor="start" font-size="13px" font-weight="400" fill="rgb(13, 11, 34)" style="font-size:13px;font-family:微软雅黑;color:#0D0B22;font-style:normal;text-align:left;font-weight:400;font-style: normal;"><tspan x="457" y="756.5249938964844"><tspan>功能</tspan></tspan></text></g></g><g id="a73a0ef63286"><rect x="572" y="667.2999877929688" rx="1px" ry="1px" width="48" height="29" style="fill: transparent; stroke:none;"></rect><g><text text-anchor="start" align="top" anchor="start" font-size="13px" font-weight="400" fill="rgb(13, 11, 34)" style="font-size:13px;font-family:微软雅黑;color:#0D0B22;font-style:normal;text-align:left;font-weight:400;font-style: normal;"><tspan x="581" y="687.3875122070312"><tspan>布局</tspan></tspan></text></g></g><g id="6abbfb8df4d0"><rect x="696" y="644.2624969482422" rx="1px" ry="1px" width="57" height="29" style="fill: transparent; stroke:none;"></rect><g><text text-anchor="start" align="top" anchor="start" font-size="13px" font-weight="400" fill="rgb(13, 11, 34)" style="font-size:13px;font-family:微软雅黑;color:#0D0B22;font-style:normal;text-align:left;font-weight:400;font-style: normal;"><tspan x="705" y="664.3499908447266"><tspan>正常流</tspan></tspan></text></g></g><g id="35dc4e2bdd82"><rect x="696" y="690.3500061035156" rx="1px" ry="1px" width="70" height="29" style="fill: transparent; stroke:none;"></rect><g><text text-anchor="start" align="top" anchor="start" font-size="13px" font-weight="400" fill="rgb(13, 11, 34)" style="font-size:13px;font-family:微软雅黑;color:#0D0B22;font-style:normal;text-align:left;font-weight:400;font-style: normal;"><tspan x="705" y="710.4375"><tspan>弹性布局</tspan></tspan></text></g></g><g id="748676814af0"><rect x="572" y="759.4750061035156" rx="1px" ry="1px" width="48" height="29" style="fill: transparent; stroke:none;"></rect><g><text text-anchor="start" align="top" anchor="start" font-size="13px" font-weight="400" fill="rgb(13, 11, 34)" style="font-size:13px;font-family:微软雅黑;color:#0D0B22;font-style:normal;text-align:left;font-weight:400;font-style: normal;"><tspan x="581" y="779.5625"><tspan>绘制</tspan></tspan></text></g></g><g id="c9f662a8692b"><rect x="696" y="736.4375" rx="1px" ry="1px" width="70" height="29" style="fill: transparent; stroke:none;"></rect><g><text text-anchor="start" align="top" anchor="start" font-size="13px" font-weight="400" fill="rgb(13, 11, 34)" style="font-size:13px;font-family:微软雅黑;color:#0D0B22;font-style:normal;text-align:left;font-weight:400;font-style: normal;"><tspan x="705" y="756.5249938964844"><tspan>颜色形状</tspan></tspan></text></g></g><g id="c8bbf09edee2"><rect x="696" y="782.5249938964844" rx="1px" ry="1px" width="70" height="29" style="fill: transparent; stroke:none;"></rect><g><text text-anchor="start" align="top" anchor="start" font-size="13px" font-weight="400" fill="rgb(13, 11, 34)" style="font-size:13px;font-family:微软雅黑;color:#0D0B22;font-style:normal;text-align:left;font-weight:400;font-style: normal;"><tspan x="705" y="802.6124877929688"><tspan>文字相关</tspan></tspan></text></g></g><g id="f4914e7ecafe"><rect x="572" y="828.6124877929688" rx="1px" ry="1px" width="48" height="29" style="fill: transparent; stroke:none;"></rect><g><text text-anchor="start" align="top" anchor="start" font-size="13px" font-weight="400" fill="rgb(13, 11, 34)" style="font-size:13px;font-family:微软雅黑;color:#0D0B22;font-style:normal;text-align:left;font-weight:400;font-style: normal;"><tspan x="581" y="848.7000122070312"><tspan>交互</tspan></tspan></text></g></g><g id="6c13e6e7434b"><rect x="696" y="828.6124877929688" rx="1px" ry="1px" width="48" height="29" style="fill: transparent; stroke:none;"></rect><g><text text-anchor="start" align="top" anchor="start" font-size="13px" font-weight="400" fill="rgb(13, 11, 34)" style="font-size:13px;font-family:微软雅黑;color:#0D0B22;font-style:normal;text-align:left;font-weight:400;font-style: normal;"><tspan x="705" y="848.7000122070312"><tspan>动画</tspan></tspan></text></g></g><g id="972269717daa"><rect x="314" y="237.09999084472656" rx="1px" ry="1px" width="63" height="29" style="fill: transparent; stroke:none;"></rect><g><text text-anchor="start" align="top" anchor="start" font-size="16px" font-weight="normal" fill="rgb(13, 11, 34)" style="font-size:16px;font-family:微软雅黑;color:#0D0B22;font-style:normal;text-align:left;font-weight:normal;font-style: normal;"><tspan x="328" y="258.37498474121094"><tspan>html</tspan></tspan></text></g></g><g id="63dd08502b79"><rect x="453.0625" y="168.2624969482422" rx="1px" ry="1px" width="48" height="29" style="fill: transparent; stroke:none;"></rect><g><text text-anchor="start" align="top" anchor="start" font-size="13px" font-weight="400" fill="rgb(13, 11, 34)" style="font-size:13px;font-family:微软雅黑;color:#0D0B22;font-style:normal;text-align:left;font-weight:400;font-style: normal;"><tspan x="462.0625" y="188.34999084472656"><tspan>元素</tspan></tspan></text></g></g><g id="fd0c9b944a68"><rect x="577.0625" y="30" rx="1px" ry="1px" width="83" height="29" style="fill: transparent; stroke:none;"></rect><g><text text-anchor="start" align="top" anchor="start" font-size="13px" font-weight="400" fill="rgb(13, 11, 34)" style="font-size:13px;font-family:微软雅黑;color:#0D0B22;font-style:normal;text-align:left;font-weight:400;font-style: normal;"><tspan x="586.0625" y="50.087493896484375"><tspan>文档元信息</tspan></tspan></text></g></g><g id="8fc0e0336a61"><rect x="577.0625" y="76.08749389648438" rx="1px" ry="1px" width="96" height="29" style="fill: transparent; stroke:none;"></rect><g><text text-anchor="start" align="top" anchor="start" font-size="13px" font-weight="400" fill="rgb(13, 11, 34)" style="font-size:13px;font-family:微软雅黑;color:#0D0B22;font-style:normal;text-align:left;font-weight:400;font-style: normal;"><tspan x="586.0625" y="96.17498779296875"><tspan>语义相关内容</tspan></tspan></text></g></g><g id="11b32961053b"><rect x="577.0625" y="122.17498779296875" rx="1px" ry="1px" width="48" height="29" style="fill: transparent; stroke:none;"></rect><g><text text-anchor="start" align="top" anchor="start" font-size="13px" font-weight="400" fill="rgb(13, 11, 34)" style="font-size:13px;font-family:微软雅黑;color:#0D0B22;font-style:normal;text-align:left;font-weight:400;font-style: normal;"><tspan x="586.0625" y="142.26248168945312"><tspan>链接</tspan></tspan></text></g></g><g id="38ef158ad419"><rect x="577.0625" y="168.2624969482422" rx="1px" ry="1px" width="83" height="29" style="fill: transparent; stroke:none;"></rect><g><text text-anchor="start" align="top" anchor="start" font-size="13px" font-weight="400" fill="rgb(13, 11, 34)" style="font-size:13px;font-family:微软雅黑;color:#0D0B22;font-style:normal;text-align:left;font-weight:400;font-style: normal;"><tspan x="586.0625" y="188.34999084472656"><tspan>替换型元素</tspan></tspan></text></g></g><g id="846156a0dc6d"><rect x="577.0625" y="214.34999084472656" rx="1px" ry="1px" width="48" height="29" style="fill: transparent; stroke:none;"></rect><g><text text-anchor="start" align="top" anchor="start" font-size="13px" font-weight="400" fill="rgb(13, 11, 34)" style="font-size:13px;font-family:微软雅黑;color:#0D0B22;font-style:normal;text-align:left;font-weight:400;font-style: normal;"><tspan x="586.0625" y="234.43748474121094"><tspan>表单</tspan></tspan></text></g></g><g id="e120e2131768"><rect x="577.0625" y="260.43748474121094" rx="1px" ry="1px" width="48" height="29" style="fill: transparent; stroke:none;"></rect><g><text text-anchor="start" align="top" anchor="start" font-size="13px" font-weight="400" fill="rgb(13, 11, 34)" style="font-size:13px;font-family:微软雅黑;color:#0D0B22;font-style:normal;text-align:left;font-weight:400;font-style: normal;"><tspan x="586.0625" y="280.5249938964844"><tspan>表格</tspan></tspan></text></g></g><g id="32d5b4997315"><rect x="577.0625" y="306.5249938964844" rx="1px" ry="1px" width="48" height="29" style="fill: transparent; stroke:none;"></rect><g><text text-anchor="start" align="top" anchor="start" font-size="13px" font-weight="400" fill="rgb(13, 11, 34)" style="font-size:13px;font-family:微软雅黑;color:#0D0B22;font-style:normal;text-align:left;font-weight:400;font-style: normal;"><tspan x="586.0625" y="326.6124954223633"><tspan>总集</tspan></tspan></text></g></g><g id="81d767ef2cb6"><rect x="453.0625" y="375.6499938964844" rx="1px" ry="1px" width="48" height="29" style="fill: transparent; stroke:none;"></rect><g><text text-anchor="start" align="top" anchor="start" font-size="13px" font-weight="400" fill="rgb(13, 11, 34)" style="font-size:13px;font-family:微软雅黑;color:#0D0B22;font-style:normal;text-align:left;font-weight:400;font-style: normal;"><tspan x="462.0625" y="395.73749351501465"><tspan>语言</tspan></tspan></text></g></g><g id="719cb80c2af3"><rect x="577.0625" y="352.612491607666" rx="1px" ry="1px" width="48" height="29" style="fill: transparent; stroke:none;"></rect><g><text text-anchor="start" align="top" anchor="start" font-size="13px" font-weight="400" fill="rgb(13, 11, 34)" style="font-size:13px;font-family:微软雅黑;color:#0D0B22;font-style:normal;text-align:left;font-weight:400;font-style: normal;"><tspan x="586.0625" y="372.6999931335449"><tspan>实体</tspan></tspan></text></g></g><g id="1d55652d2aa9"><rect x="577.0625" y="398.69999384880066" rx="1px" ry="1px" width="70" height="29" style="fill: transparent; stroke:none;"></rect><g><text text-anchor="start" align="top" anchor="start" font-size="13px" font-weight="400" fill="rgb(13, 11, 34)" style="font-size:13px;font-family:微软雅黑;color:#0D0B22;font-style:normal;text-align:left;font-weight:400;font-style: normal;"><tspan x="586.0625" y="418.7874937057495"><tspan>命名空间</tspan></tspan></text></g></g><g id="c9b151745669"><rect x="453.0625" y="444.7874946594238" rx="1px" ry="1px" width="70" height="29" style="fill: transparent; stroke:none;"></rect><g><text text-anchor="start" align="top" anchor="start" font-size="13px" font-weight="400" fill="rgb(13, 11, 34)" style="font-size:13px;font-family:微软雅黑;color:#0D0B22;font-style:normal;text-align:left;font-weight:400;font-style: normal;"><tspan x="462.0625" y="464.87499618530273"><tspan>补充标准</tspan></tspan></text></g></g><g transform="translate(314, 505.99999237060547)" id="sdjakdjak0"><g id="subline_d07590c17a0a" transform="translate(0.5,-0.5)"><path id="line_0d9ac870f747" d="M 58 193 L 58 193 M 58 193 C 104 193 96 76 134 76 L 182 76" p="d07590c17a0a" stroke="#02ACF4" fill="none" stroke-linecap="round" stroke-width="3"></path><path id="line_9988803f1d9e" d="M 182 76 L 182 76 M 182 76 C 228 76 220 30 258 30 L 313 30" p="0d9ac870f747" stroke="#02ACF4" fill="none" stroke-linecap="round" stroke-width="3"></path><path id="line_68342082378c" d="M 182 76 L 182 76 M 182 76 C 228 76 220 76 258 76 L 315 76" p="0d9ac870f747" stroke="#02ACF4" fill="none" stroke-linecap="round" stroke-width="3"></path><path id="line_7576c49c07d8" d="M 182 76 L 182 76 M 182 76 C 228 76 220 122 258 122 L 306 122" p="0d9ac870f747" stroke="#02ACF4" fill="none" stroke-linecap="round" stroke-width="3"></path><path id="line_a8a8dd603f51" d="M 58 193 L 58 193 M 58 193 C 104 193 96 260 134 260 L 182 260" p="d07590c17a0a" stroke="#02ACF4" fill="none" stroke-linecap="round" stroke-width="3"></path><path id="line_a73a0ef63286" d="M 182 260 L 182 260 M 182 260 C 228 260 220 191 258 191 L 306 191" p="a8a8dd603f51" stroke="#02ACF4" fill="none" stroke-linecap="round" stroke-width="3"></path><path id="line_6abbfb8df4d0" d="M 306 191 L 306 191 M 306 191 C 352 191 344 168 382 168 L 439 168" p="a73a0ef63286" stroke="#02ACF4" fill="none" stroke-linecap="round" stroke-width="3"></path><path id="line_35dc4e2bdd82" d="M 306 191 L 306 191 M 306 191 C 352 191 344 214 382 214 L 452 214" p="a73a0ef63286" stroke="#02ACF4" fill="none" stroke-linecap="round" stroke-width="3"></path><path id="line_748676814af0" d="M 182 260 L 182 260 M 182 260 C 228 260 220 283 258 283 L 306 283" p="a8a8dd603f51" stroke="#02ACF4" fill="none" stroke-linecap="round" stroke-width="3"></path><path id="line_c9f662a8692b" d="M 306 283 L 306 283 M 306 283 C 352 283 344 260 382 260 L 452 260" p="748676814af0" stroke="#02ACF4" fill="none" stroke-linecap="round" stroke-width="3"></path><path id="line_c8bbf09edee2" d="M 306 283 L 306 283 M 306 283 C 352 283 344 307 382 307 L 452 307" p="748676814af0" stroke="#02ACF4" fill="none" stroke-linecap="round" stroke-width="3"></path><path id="line_f4914e7ecafe" d="M 182 260 L 182 260 M 182 260 C 228 260 220 353 258 353 L 306 353" p="a8a8dd603f51" stroke="#02ACF4" fill="none" stroke-linecap="round" stroke-width="3"></path><path id="line_6c13e6e7434b" d="M 306 353 L 306 353 M 306 353 C 352 353 344 353 382 353 L 430 353" p="f4914e7ecafe" stroke="#02ACF4" fill="none" stroke-linecap="round" stroke-width="3"></path></g><g transform="translate(0.5,0)"></g><g class="svg-summary-con" transform="translate(0.5,0.5)"></g><g class="svg-boundary-con" transform="translate(0.5,0.5)"></g></g><g transform="translate(314, 30)" id="sdjakdjak1"><g id="subline_972269717daa" transform="translate(0.5,-0.5)"><path id="line_63dd08502b79" d="M 63 238 L 63 238 M 63 238 C 109.0625 238 101.03125 168 139.0625 168 L 187.0625 168" p="972269717daa" stroke="#7549C5" fill="none" stroke-linecap="round" stroke-width="3"></path><path id="line_fd0c9b944a68" d="M 187.0625 168 L 187.0625 168 M 187.0625 168 C 233.0625 168 225.0625 30 263.0625 30 L 346.0625 30" p="63dd08502b79" stroke="#7549C5" fill="none" stroke-linecap="round" stroke-width="3"></path><path id="line_8fc0e0336a61" d="M 187.0625 168 L 187.0625 168 M 187.0625 168 C 233.0625 168 225.0625 76 263.0625 76 L 359.0625 76" p="63dd08502b79" stroke="#7549C5" fill="none" stroke-linecap="round" stroke-width="3"></path><path id="line_11b32961053b" d="M 187.0625 168 L 187.0625 168 M 187.0625 168 C 233.0625 168 225.0625 122 263.0625 122 L 311.0625 122" p="63dd08502b79" stroke="#7549C5" fill="none" stroke-linecap="round" stroke-width="3"></path><path id="line_38ef158ad419" d="M 187.0625 168 L 187.0625 168 M 187.0625 168 C 233.0625 168 225.0625 168 263.0625 168 L 346.0625 168" p="63dd08502b79" stroke="#7549C5" fill="none" stroke-linecap="round" stroke-width="3"></path><path id="line_846156a0dc6d" d="M 187.0625 168 L 187.0625 168 M 187.0625 168 C 233.0625 168 225.0625 214 263.0625 214 L 311.0625 214" p="63dd08502b79" stroke="#7549C5" fill="none" stroke-linecap="round" stroke-width="3"></path><path id="line_e120e2131768" d="M 187.0625 168 L 187.0625 168 M 187.0625 168 C 233.0625 168 225.0625 260 263.0625 260 L 311.0625 260" p="63dd08502b79" stroke="#7549C5" fill="none" stroke-linecap="round" stroke-width="3"></path><path id="line_32d5b4997315" d="M 187.0625 168 L 187.0625 168 M 187.0625 168 C 233.0625 168 225.0625 307 263.0625 307 L 311.0625 307" p="63dd08502b79" stroke="#7549C5" fill="none" stroke-linecap="round" stroke-width="3"></path><path id="line_81d767ef2cb6" d="M 63 238 L 63 238 M 63 238 C 109.0625 238 101.03125 376 139.0625 376 L 187.0625 376" p="972269717daa" stroke="#7549C5" fill="none" stroke-linecap="round" stroke-width="3"></path><path id="line_719cb80c2af3" d="M 187.0625 376 L 187.0625 376 M 187.0625 376 C 233.0625 376 225.0625 353 263.0625 353 L 311.0625 353" p="81d767ef2cb6" stroke="#7549C5" fill="none" stroke-linecap="round" stroke-width="3"></path><path id="line_1d55652d2aa9" d="M 187.0625 376 L 187.0625 376 M 187.0625 376 C 233.0625 376 225.0625 399 263.0625 399 L 333.0625 399" p="81d767ef2cb6" stroke="#7549C5" fill="none" stroke-linecap="round" stroke-width="3"></path><path id="line_c9b151745669" d="M 63 238 L 63 238 M 63 238 C 109.0625 238 101.03125 445 139.0625 445 L 209.0625 445" p="972269717daa" stroke="#7549C5" fill="none" stroke-linecap="round" stroke-width="3"></path></g><g transform="translate(0.5,0)"></g><g class="svg-summary-con" transform="translate(0.5,0.5)"></g><g class="svg-boundary-con" transform="translate(0.5,0.5)"></g></g><g transform="translate(30, 423.9999942779541)" id="sdjakdjak2"><g id="subline_root" transform="translate(0.5,-0.5)"></g><g transform="translate(0.5,0)"></g><g class="svg-summary-con" transform="translate(0.5,0.5)"></g><g class="svg-boundary-con" transform="translate(0.5,0.5)"></g></g><g id="root"><rect x="30" y="423.9999942779541" rx="7px" ry="7px" width="184" height="68" style="fill: #ffffff; stroke:none;"></rect><g><text text-anchor="start" align="top" anchor="start" font-size="24px" font-weight="normal" fill="rgb(42, 46, 54)" style="font-size:24px;font-family:微软雅黑;color:#2A2E36;font-style:normal;text-align:left;font-weight:normal;font-style: normal;"><tspan x="68" y="466.3249931335449"><tspan>html&amp;css</tspan></tspan></text></g></g></svg>
