<?xml version="1.0" standalone="no"?><?xml-stylesheet type="text/css" href="https://www.processon.com/themes/default/mind/icons/icons.css" ?><!DOCTYPE svg PUBLIC "-//W3C//DTD SVG 1.1//EN" "http://www.w3.org/Graphics/SVG/1.1/DTD/svg11.dtd">
<svg xmlns="http://www.w3.org/2000/svg" version="1.1" xlink="http://www.w3.org/1999/xlink" id="mind-svg-con" width="905px" height="943.8541870117188px" style="position: absolute; left: 0px; top: 0px; width: 905px; height: 943.854px; background: rgb(247, 247, 247); z-index: 999;"><defs></defs><g id="svgbackgroundid"><defs></defs><rect x="0" y="0" width="905" height="943.8541870117188" fill="#F7F7F7"></rect></g><g transform="translate(-9908, -9452.000305175781)" id="sdjakdjak3"><defs></defs><g class="svg-topic-con" transform="translate(0.5,0.5)"><path part="right" sub="true" id="line_25a0685f7133" d="M 10000 9936.500326156616 L 10057 9936.500326156616 C 10097 9936.500326156616 10097 9582 10162 9582 L 10222 9582" stroke="#FA5465" fill="none" stroke-linecap="round" stroke-width="3"></path><path part="right" sub="true" id="line_373d43b30545" d="M 10000 9936.500326156616 L 10057 9936.500326156616 C 10097 9936.500326156616 10097 10038 10162 10038 L 10222 10038" stroke="#0F80C4" fill="none" stroke-linecap="round" stroke-width="3"></path></g><g class="svg-connection-con" transform="translate(0.5,0.5)"></g><g class="svg-freesums-con" transform="translate(0.5,0.5)"></g><g class="svg-freebos-con" transform="translate(0.5,0.5)"></g></g><g id="373d43b30545"><rect x="254" y="556.5000305175781" rx="1px" ry="1px" width="60" height="29" style="fill: transparent; stroke:none;"></rect><g><text text-anchor="start" align="top" anchor="start" font-size="16px" font-weight="normal" fill="rgb(13, 11, 34)" style="font-size:16px;font-family:微软雅黑;color:#0D0B22;font-style:normal;text-align:left;font-weight:normal;font-style: normal;"><tspan x="268" y="577.8437805175781"><tspan>使用</tspan></tspan></text></g></g><g id="2cdd3b66e66c"><rect x="390" y="509.9375228881836" rx="1px" ry="1px" width="48" height="30" style="fill: transparent; stroke:none;"></rect><g><text text-anchor="start" align="top" anchor="start" font-size="13px" font-weight="400" fill="rgb(13, 11, 34)" style="font-size:13px;font-family:微软雅黑;color:#0D0B22;font-style:normal;text-align:left;font-weight:400;font-style: normal;"><tspan x="399" y="530.4271087646484"><tspan>报文</tspan></tspan></text></g></g><g id="0fc676048cdb"><rect x="514" y="440.19793701171875" rx="1px" ry="1px" width="57" height="29" style="fill: transparent; stroke:none;"></rect><g><text text-anchor="start" align="top" anchor="start" font-size="13px" font-weight="400" fill="rgb(13, 11, 34)" style="font-size:13px;font-family:微软雅黑;color:#0D0B22;font-style:normal;text-align:left;font-weight:400;font-style: normal;"><tspan x="523" y="460.68752098083496"><tspan>起始行</tspan></tspan></text></g></g><g id="fe56b6af648b"><rect x="647" y="393.70835304260254" rx="1px" ry="1px" width="70" height="29" style="fill: transparent; stroke:none;"></rect><g><text text-anchor="start" align="top" anchor="start" font-size="13px" font-weight="400" fill="rgb(13, 11, 34)" style="font-size:13px;font-family:微软雅黑;color:#0D0B22;font-style:normal;text-align:left;font-weight:400;font-style: normal;"><tspan x="656" y="414.19793701171875"><tspan>请求类型</tspan></tspan></text></g></g><g id="fccbd47f6c8e"><rect x="793" y="231.00001525878906" rx="1px" ry="1px" width="48" height="29" style="fill: transparent; stroke:none;"></rect><g><text text-anchor="start" align="top" anchor="start" font-size="13px" font-weight="400" fill="rgb(13, 11, 34)" style="font-size:13px;font-family:微软雅黑;color:#0D0B22;font-style:normal;text-align:left;font-weight:400;font-style: normal;"><tspan x="802" y="251.48959350585938"><tspan>GET</tspan></tspan></text></g></g><g id="a8ecc9bd34b1"><rect x="793" y="277.4895935058594" rx="1px" ry="1px" width="51" height="29" style="fill: transparent; stroke:none;"></rect><g><text text-anchor="start" align="top" anchor="start" font-size="13px" font-weight="400" fill="rgb(13, 11, 34)" style="font-size:13px;font-family:微软雅黑;color:#0D0B22;font-style:normal;text-align:left;font-weight:400;font-style: normal;"><tspan x="802" y="297.97918701171875"><tspan>POST</tspan></tspan></text></g></g><g id="3e9d789a9211"><rect x="793" y="323.97918701171875" rx="1px" ry="1px" width="63" height="29" style="fill: transparent; stroke:none;"></rect><g><text text-anchor="start" align="top" anchor="start" font-size="13px" font-weight="400" fill="rgb(13, 11, 34)" style="font-size:13px;font-family:微软雅黑;color:#0D0B22;font-style:normal;text-align:left;font-weight:400;font-style: normal;"><tspan x="802" y="344.46876525878906"><tspan>DELETE</tspan></tspan></text></g></g><g id="8fcf1b3ae708"><rect x="793" y="370.4687690734863" rx="1px" ry="1px" width="48" height="29" style="fill: transparent; stroke:none;"></rect><g><text text-anchor="start" align="top" anchor="start" font-size="13px" font-weight="400" fill="rgb(13, 11, 34)" style="font-size:13px;font-family:微软雅黑;color:#0D0B22;font-style:normal;text-align:left;font-weight:400;font-style: normal;"><tspan x="802" y="390.9583511352539"><tspan>PUT</tspan></tspan></text></g></g><g id="7fd2983ea9a8"><rect x="793" y="416.9583535194397" rx="1px" ry="1px" width="54" height="29" style="fill: transparent; stroke:none;"></rect><g><text text-anchor="start" align="top" anchor="start" font-size="13px" font-weight="400" fill="rgb(13, 11, 34)" style="font-size:13px;font-family:微软雅黑;color:#0D0B22;font-style:normal;text-align:left;font-weight:400;font-style: normal;"><tspan x="802" y="437.44793701171875"><tspan>HEAD</tspan></tspan></text></g></g><g id="e40aa485c170"><rect x="793" y="463.44793701171875" rx="1px" ry="1px" width="69" height="29" style="fill: transparent; stroke:none;"></rect><g><text text-anchor="start" align="top" anchor="start" font-size="13px" font-weight="400" fill="rgb(13, 11, 34)" style="font-size:13px;font-family:微软雅黑;color:#0D0B22;font-style:normal;text-align:left;font-weight:400;font-style: normal;"><tspan x="802" y="483.9375228881836"><tspan>OPTION</tspan></tspan></text></g></g><g id="71580a0c9b9a"><rect x="793" y="509.9375228881836" rx="1px" ry="1px" width="59" height="29" style="fill: transparent; stroke:none;"></rect><g><text text-anchor="start" align="top" anchor="start" font-size="13px" font-weight="400" fill="rgb(13, 11, 34)" style="font-size:13px;font-family:微软雅黑;color:#0D0B22;font-style:normal;text-align:left;font-weight:400;font-style: normal;"><tspan x="802" y="530.4271087646484"><tspan>TRACE</tspan></tspan></text></g></g><g id="faea20d6cb7b"><rect x="793" y="556.4271087646484" rx="1px" ry="1px" width="82" height="29" style="fill: transparent; stroke:none;"></rect><g><text text-anchor="start" align="top" anchor="start" font-size="13px" font-weight="400" fill="rgb(13, 11, 34)" style="font-size:13px;font-family:微软雅黑;color:#0D0B22;font-style:normal;text-align:left;font-weight:400;font-style: normal;"><tspan x="802" y="576.9166870117188"><tspan>CONNECT</tspan></tspan></text></g></g><g id="c6368052d218"><rect x="647" y="602.9166870117188" rx="1px" ry="1px" width="57" height="29" style="fill: transparent; stroke:none;"></rect><g><text text-anchor="start" align="top" anchor="start" font-size="13px" font-weight="400" fill="rgb(13, 11, 34)" style="font-size:13px;font-family:微软雅黑;color:#0D0B22;font-style:normal;text-align:left;font-weight:400;font-style: normal;"><tspan x="656" y="623.4062805175781"><tspan>版本号</tspan></tspan></text></g></g><g id="a55c3c17f386"><rect x="647" y="649.4062805175781" rx="1px" ry="1px" width="57" height="29" style="fill: transparent; stroke:none;"></rect><g><text text-anchor="start" align="top" anchor="start" font-size="13px" font-weight="400" fill="rgb(13, 11, 34)" style="font-size:13px;font-family:微软雅黑;color:#0D0B22;font-style:normal;text-align:left;font-weight:400;font-style: normal;"><tspan x="656" y="669.8958587646484"><tspan>状态码</tspan></tspan></text></g></g><g id="1f8ce19e2bfc"><rect x="514" y="719.1354370117188" rx="1px" ry="1px" width="106" height="29" style="fill: transparent; stroke:none;"></rect><g><text text-anchor="start" align="top" anchor="start" font-size="13px" font-weight="400" fill="rgb(13, 11, 34)" style="font-size:13px;font-family:微软雅黑;color:#0D0B22;font-style:normal;text-align:left;font-weight:400;font-style: normal;"><tspan x="523" y="739.6250305175781"><tspan>头（headers）</tspan></tspan></text></g></g><g id="d8eb27400648"><rect x="696.2396240234375" y="695.8958740234375" rx="1px" ry="1px" width="57" height="29" style="fill: transparent; stroke:none;"></rect><g><text text-anchor="start" align="top" anchor="start" font-size="13px" font-weight="400" fill="rgb(13, 11, 34)" style="font-size:13px;font-family:微软雅黑;color:#0D0B22;font-style:normal;text-align:left;font-weight:400;font-style: normal;"><tspan x="705.2396240234375" y="716.3854370117188"><tspan>请求头</tspan></tspan></text></g></g><g id="d9d9ef97471e"><rect x="696.2396240234375" y="742.3854370117188" rx="1px" ry="1px" width="57" height="29" style="fill: transparent; stroke:none;"></rect><g><text text-anchor="start" align="top" anchor="start" font-size="13px" font-weight="400" fill="rgb(13, 11, 34)" style="font-size:13px;font-family:微软雅黑;color:#0D0B22;font-style:normal;text-align:left;font-weight:400;font-style: normal;"><tspan x="705.2396240234375" y="762.8750305175781"><tspan>响应头</tspan></tspan></text></g></g><g id="cf056c4358cf"><rect x="514" y="788.8750305175781" rx="1px" ry="1px" width="115" height="29" style="fill: transparent; stroke:none;"></rect><g><text text-anchor="start" align="top" anchor="start" font-size="13px" font-weight="400" fill="rgb(13, 11, 34)" style="font-size:13px;font-family:微软雅黑;color:#0D0B22;font-style:normal;text-align:left;font-weight:400;font-style: normal;"><tspan x="523" y="809.3646240234375"><tspan>请求体（body）</tspan></tspan></text></g></g><g id="04590f8f6957"><rect x="390" y="835.3646240234375" rx="1px" ry="1px" width="48" height="29" style="fill: transparent; stroke:none;"></rect><g><text text-anchor="start" align="top" anchor="start" font-size="13px" font-weight="400" fill="rgb(13, 11, 34)" style="font-size:13px;font-family:微软雅黑;color:#0D0B22;font-style:normal;text-align:left;font-weight:400;font-style: normal;"><tspan x="399" y="855.8541870117188"><tspan>缓存</tspan></tspan></text></g></g><g id="442bf5341e35"><rect x="390" y="881.8541870117188" rx="1px" ry="1px" width="157" height="29" style="fill: transparent; stroke:none;"></rect><g><text text-anchor="start" align="top" anchor="start" font-size="13px" font-weight="400" fill="rgb(13, 11, 34)" style="font-size:13px;font-family:微软雅黑;color:#0D0B22;font-style:normal;text-align:left;font-weight:400;font-style: normal;"><tspan x="399" y="902.3437805175781"><tspan>跨源资源共享（CORS）</tspan></tspan></text></g></g><g id="25a0685f7133"><rect x="254" y="99.80209350585938" rx="1px" ry="1px" width="60" height="29" style="fill: transparent; stroke:none;"></rect><g><text text-anchor="start" align="top" anchor="start" font-size="16px" font-weight="normal" fill="rgb(13, 11, 34)" style="font-size:16px;font-family:微软雅黑;color:#0D0B22;font-style:normal;text-align:left;font-weight:normal;font-style: normal;"><tspan x="268" y="121.14584350585938"><tspan>历史</tspan></tspan></text></g></g><g id="47cff2fdae79"><rect x="390" y="30" rx="1px" ry="1px" width="61" height="29" style="fill: transparent; stroke:none;"></rect><g><text text-anchor="start" align="top" anchor="start" font-size="13px" font-weight="400" fill="rgb(13, 11, 34)" style="font-size:13px;font-family:微软雅黑;color:#0D0B22;font-style:normal;text-align:left;font-weight:400;font-style: normal;"><tspan x="399" y="50.489593505859375"><tspan>http1.x</tspan></tspan></text></g></g><g id="2f5264840209"><rect x="390" y="76.48959350585938" rx="1px" ry="1px" width="63" height="29" style="fill: transparent; stroke:none;"></rect><g><text text-anchor="start" align="top" anchor="start" font-size="13px" font-weight="400" fill="rgb(13, 11, 34)" style="font-size:13px;font-family:微软雅黑;color:#0D0B22;font-style:normal;text-align:left;font-weight:400;font-style: normal;"><tspan x="399" y="96.97918701171875"><tspan>http2.0</tspan></tspan></text></g></g><g id="bbce60d1bb5b"><rect x="390" y="122.97918701171875" rx="1px" ry="1px" width="63" height="29" style="fill: transparent; stroke:none;"></rect><g><text text-anchor="start" align="top" anchor="start" font-size="13px" font-weight="400" fill="rgb(13, 11, 34)" style="font-size:13px;font-family:微软雅黑;color:#0D0B22;font-style:normal;text-align:left;font-weight:400;font-style: normal;"><tspan x="399" y="143.46875"><tspan>http3.0</tspan></tspan></text></g></g><g id="974b4befb770"><rect x="390" y="169.46876525878906" rx="1px" ry="1px" width="50" height="29" style="fill: transparent; stroke:none;"></rect><g><text text-anchor="start" align="top" anchor="start" font-size="13px" font-weight="400" fill="rgb(13, 11, 34)" style="font-size:13px;font-family:微软雅黑;color:#0D0B22;font-style:normal;text-align:left;font-weight:400;font-style: normal;"><tspan x="399" y="189.95834350585938"><tspan>https</tspan></tspan></text></g></g><g transform="translate(254, 231.00001525878906)" id="sdjakdjak0"><g id="subline_373d43b30545" transform="translate(0.5,-0.5)"><path id="line_2cdd3b66e66c" d="M 60 356 L 60 356 M 60 356 C 106 356 98 310 136 310 L 184 310" p="373d43b30545" stroke="#0F80C4" fill="none" stroke-linecap="round" stroke-width="3"></path><path id="line_0fc676048cdb" d="M 184 310 L 184 310 M 184 310 C 230 310 222 239 260 239 L 317 239" p="2cdd3b66e66c" stroke="#0F80C4" fill="none" stroke-linecap="round" stroke-width="3"></path><path id="line_fe56b6af648b" d="M 317 239 L 317 239 M 317 239 C 363 239 355 193 393 193 L 463 193" p="0fc676048cdb" stroke="#0F80C4" fill="none" stroke-linecap="round" stroke-width="3"></path><path id="line_fccbd47f6c8e" d="M 463 193 L 463 193 M 463 193 C 509 193 501 30 539 30 L 587 30" p="fe56b6af648b" stroke="#0F80C4" fill="none" stroke-linecap="round" stroke-width="3"></path><path id="line_a8ecc9bd34b1" d="M 463 193 L 463 193 M 463 193 C 509 193 501 76 539 76 L 590 76" p="fe56b6af648b" stroke="#0F80C4" fill="none" stroke-linecap="round" stroke-width="3"></path><path id="line_3e9d789a9211" d="M 463 193 L 463 193 M 463 193 C 509 193 501 123 539 123 L 602 123" p="fe56b6af648b" stroke="#0F80C4" fill="none" stroke-linecap="round" stroke-width="3"></path><path id="line_8fcf1b3ae708" d="M 463 193 L 463 193 M 463 193 C 509 193 501 169 539 169 L 587 169" p="fe56b6af648b" stroke="#0F80C4" fill="none" stroke-linecap="round" stroke-width="3"></path><path id="line_7fd2983ea9a8" d="M 463 193 L 463 193 M 463 193 C 509 193 501 216 539 216 L 593 216" p="fe56b6af648b" stroke="#0F80C4" fill="none" stroke-linecap="round" stroke-width="3"></path><path id="line_e40aa485c170" d="M 463 193 L 463 193 M 463 193 C 509 193 501 262 539 262 L 608 262" p="fe56b6af648b" stroke="#0F80C4" fill="none" stroke-linecap="round" stroke-width="3"></path><path id="line_71580a0c9b9a" d="M 463 193 L 463 193 M 463 193 C 509 193 501 309 539 309 L 598 309" p="fe56b6af648b" stroke="#0F80C4" fill="none" stroke-linecap="round" stroke-width="3"></path><path id="line_faea20d6cb7b" d="M 463 193 L 463 193 M 463 193 C 509 193 501 355 539 355 L 621 355" p="fe56b6af648b" stroke="#0F80C4" fill="none" stroke-linecap="round" stroke-width="3"></path><path id="line_c6368052d218" d="M 317 239 L 317 239 M 317 239 C 363 239 355 402 393 402 L 450 402" p="0fc676048cdb" stroke="#0F80C4" fill="none" stroke-linecap="round" stroke-width="3"></path><path id="line_a55c3c17f386" d="M 317 239 L 317 239 M 317 239 C 363 239 355 448 393 448 L 450 448" p="0fc676048cdb" stroke="#0F80C4" fill="none" stroke-linecap="round" stroke-width="3"></path><path id="line_1f8ce19e2bfc" d="M 184 310 L 184 310 M 184 310 C 230 310 222 518 260 518 L 366 518" p="2cdd3b66e66c" stroke="#0F80C4" fill="none" stroke-linecap="round" stroke-width="3"></path><path id="line_d8eb27400648" d="M 366 518 L 366 518 M 366 518 C 412.2396240234375 518 404.11981201171875 495 442.2396240234375 495 L 499.2396240234375 495" p="1f8ce19e2bfc" stroke="#0F80C4" fill="none" stroke-linecap="round" stroke-width="3"></path><path id="line_d9d9ef97471e" d="M 366 518 L 366 518 M 366 518 C 412.2396240234375 518 404.11981201171875 541 442.2396240234375 541 L 499.2396240234375 541" p="1f8ce19e2bfc" stroke="#0F80C4" fill="none" stroke-linecap="round" stroke-width="3"></path><path id="line_cf056c4358cf" d="M 184 310 L 184 310 M 184 310 C 230 310 222 588 260 588 L 375 588" p="2cdd3b66e66c" stroke="#0F80C4" fill="none" stroke-linecap="round" stroke-width="3"></path><path id="line_04590f8f6957" d="M 60 356 L 60 356 M 60 356 C 106 356 98 634 136 634 L 184 634" p="373d43b30545" stroke="#0F80C4" fill="none" stroke-linecap="round" stroke-width="3"></path><path id="line_442bf5341e35" d="M 60 356 L 60 356 M 60 356 C 106 356 98 681 136 681 L 293 681" p="373d43b30545" stroke="#0F80C4" fill="none" stroke-linecap="round" stroke-width="3"></path></g><g transform="translate(0.5,0)"></g><g class="svg-summary-con" transform="translate(0.5,0.5)"></g><g class="svg-boundary-con" transform="translate(0.5,0.5)"></g></g><g transform="translate(254, 30)" id="sdjakdjak1"><g id="subline_25a0685f7133" transform="translate(0.5,-0.5)"><path id="line_47cff2fdae79" d="M 60 101 L 60 101 M 60 101 C 106 101 98 30 136 30 L 197 30" p="25a0685f7133" stroke="#FA5465" fill="none" stroke-linecap="round" stroke-width="3"></path><path id="line_2f5264840209" d="M 60 101 L 60 101 M 60 101 C 106 101 98 76 136 76 L 199 76" p="25a0685f7133" stroke="#FA5465" fill="none" stroke-linecap="round" stroke-width="3"></path><path id="line_bbce60d1bb5b" d="M 60 101 L 60 101 M 60 101 C 106 101 98 123 136 123 L 199 123" p="25a0685f7133" stroke="#FA5465" fill="none" stroke-linecap="round" stroke-width="3"></path><path id="line_974b4befb770" d="M 60 101 L 60 101 M 60 101 C 106 101 98 169 136 169 L 186 169" p="25a0685f7133" stroke="#FA5465" fill="none" stroke-linecap="round" stroke-width="3"></path></g><g transform="translate(0.5,0)"></g><g class="svg-summary-con" transform="translate(0.5,0.5)"></g><g class="svg-boundary-con" transform="translate(0.5,0.5)"></g></g><g transform="translate(30, 451.00002098083496)" id="sdjakdjak2"><g id="subline_root" transform="translate(0.5,-0.5)"></g><g transform="translate(0.5,0)"></g><g class="svg-summary-con" transform="translate(0.5,0.5)"></g><g class="svg-boundary-con" transform="translate(0.5,0.5)"></g></g><g id="root"><rect x="30" y="451.00002098083496" rx="7px" ry="7px" width="124" height="67" style="fill: #ffffff; stroke:none;"></rect><g><text text-anchor="start" align="top" anchor="start" font-size="24px" font-weight="normal" fill="rgb(42, 46, 54)" style="font-size:24px;font-family:微软雅黑;color:#2A2E36;font-style:normal;text-align:left;font-weight:normal;font-style: normal;"><tspan x="68" y="493.1875228881836"><tspan>http</tspan></tspan></text></g></g></svg>
