<?xml version="1.0" standalone="no"?><?xml-stylesheet type="text/css" href="https://www.processon.com/themes/default/mind/icons/icons.css" ?><!DOCTYPE svg PUBLIC "-//W3C//DTD SVG 1.1//EN" "http://www.w3.org/Graphics/SVG/1.1/DTD/svg11.dtd">
<svg xmlns="http://www.w3.org/2000/svg" version="1.1" xlink="http://www.w3.org/1999/xlink" id="mind-svg-con" width="994px" height="1236.0000610351562px" style="position: absolute; left: 0px; top: 0px; width: 994px; height: 1236px; background: rgb(247, 247, 247); z-index: 999;"><defs></defs><g id="svgbackgroundid"><defs></defs><rect x="0" y="0" width="994" height="1236.0000610351562" fill="#F7F7F7"></rect></g><g transform="translate(-9877.5, -9305.000305175781)" id="sdjakdjak4"><defs></defs><g class="svg-topic-con" transform="translate(0.5,0.5)"><path part="right" sub="true" id="line_056d151a6067" d="M 10000 9936.500326156616 L 10087.5 9936.500326156616 C 10127.5 9936.500326156616 10127.5 9853 10192.5 9853 L 10268.5 9853" stroke="#3D5EC2" fill="none" stroke-linecap="round" stroke-width="3"></path><path part="right" sub="true" id="line_42c7afd9f653" d="M 10000 9936.500326156616 L 10087.5 9936.500326156616 C 10127.5 9936.500326156616 10127.5 10425 10192.5 10425 L 10252.5 10425" stroke="#0FBAB0" fill="none" stroke-linecap="round" stroke-width="3"></path><path part="right" sub="true" id="line_c52f28273491" d="M 10000 9936.500326156616 L 10087.5 9936.500326156616 C 10127.5 9936.500326156616 10127.5 10510 10192.5 10510 L 10252.5 10510" stroke="#80BA4C" fill="none" stroke-linecap="round" stroke-width="3"></path></g><g class="svg-connection-con" transform="translate(0.5,0.5)"></g><g class="svg-freesums-con" transform="translate(0.5,0.5)"></g><g class="svg-freebos-con" transform="translate(0.5,0.5)"></g></g><g id="c52f28273491"><rect x="315" y="1175.0000610351562" rx="1px" ry="1px" width="60" height="29" style="fill: transparent; stroke:none;"></rect><g><text text-anchor="start" align="top" anchor="start" font-size="16px" font-weight="normal" fill="rgb(13, 11, 34)" style="font-size:16px;font-family:微软雅黑;color:#0D0B22;font-style:normal;text-align:left;font-weight:normal;font-style: normal;"><tspan x="329" y="1196.3438110351562"><tspan>语义</tspan></tspan></text></g></g><g id="42c7afd9f653"><rect x="315" y="1090.3125610351562" rx="1px" ry="1px" width="60" height="29" style="fill: transparent; stroke:none;"></rect><g><text text-anchor="start" align="top" anchor="start" font-size="16px" font-weight="normal" fill="rgb(13, 11, 34)" style="font-size:16px;font-family:微软雅黑;color:#0D0B22;font-style:normal;text-align:left;font-weight:normal;font-style: normal;"><tspan x="329" y="1111.6563110351562"><tspan>文法</tspan></tspan></text></g></g><g id="ca34db9c4336"><rect x="451" y="1067.0000305175781" rx="1px" ry="1px" width="48" height="29" style="fill: transparent; stroke:none;"></rect><g><text text-anchor="start" align="top" anchor="start" font-size="13px" font-weight="400" fill="rgb(13, 11, 34)" style="font-size:13px;font-family:微软雅黑;color:#0D0B22;font-style:normal;text-align:left;font-weight:400;font-style: normal;"><tspan x="460" y="1087.4896240234375"><tspan>词法</tspan></tspan></text></g></g><g id="c4564733cf86"><rect x="451" y="1113.4896240234375" rx="1px" ry="1px" width="48" height="29" style="fill: transparent; stroke:none;"></rect><g><text text-anchor="start" align="top" anchor="start" font-size="13px" font-weight="400" fill="rgb(13, 11, 34)" style="font-size:13px;font-family:微软雅黑;color:#0D0B22;font-style:normal;text-align:left;font-weight:400;font-style: normal;"><tspan x="460" y="1133.9791870117188"><tspan>语法</tspan></tspan></text></g></g><g id="056d151a6067"><rect x="315" y="518.2083511352539" rx="1px" ry="1px" width="76" height="29" style="fill: transparent; stroke:none;"></rect><g><text text-anchor="start" align="top" anchor="start" font-size="16px" font-weight="normal" fill="rgb(13, 11, 34)" style="font-size:16px;font-family:微软雅黑;color:#0D0B22;font-style:normal;text-align:left;font-weight:normal;font-style: normal;"><tspan x="329" y="539.5521011352539"><tspan>运行时</tspan></tspan></text></g></g><g id="7e6e95098039"><rect x="467" y="215.95834350585938" rx="1px" ry="1px" width="70" height="29" style="fill: transparent; stroke:none;"></rect><g><text text-anchor="start" align="top" anchor="start" font-size="13px" font-weight="400" fill="rgb(13, 11, 34)" style="font-size:13px;font-family:微软雅黑;color:#0D0B22;font-style:normal;text-align:left;font-weight:400;font-style: normal;"><tspan x="476" y="236.44793701171875"><tspan>数据结构</tspan></tspan></text></g></g><g id="7bd95d8e9d85"><rect x="613" y="192.70834350585938" rx="1px" ry="1px" width="48" height="29" style="fill: transparent; stroke:none;"></rect><g><text text-anchor="start" align="top" anchor="start" font-size="13px" font-weight="400" fill="rgb(13, 11, 34)" style="font-size:13px;font-family:微软雅黑;color:#0D0B22;font-style:normal;text-align:left;font-weight:400;font-style: normal;"><tspan x="622" y="213.19793701171875"><tspan>类型</tspan></tspan></text></g></g><g id="601f18957f28"><rect x="737" y="146.21875" rx="1px" ry="1px" width="70" height="30" style="fill: transparent; stroke:none;"></rect><g><text text-anchor="start" align="top" anchor="start" font-size="13px" font-weight="400" fill="rgb(13, 11, 34)" style="font-size:13px;font-family:微软雅黑;color:#0D0B22;font-style:normal;text-align:left;font-weight:400;font-style: normal;"><tspan x="746" y="166.70834350585938"><tspan>原始类型</tspan></tspan></text></g></g><g id="27bf7f0e90b4"><rect x="883" y="30" rx="1px" ry="1px" width="81" height="29" style="fill: transparent; stroke:none;"></rect><g><text text-anchor="start" align="top" anchor="start" font-size="13px" font-weight="400" fill="rgb(13, 11, 34)" style="font-size:13px;font-family:微软雅黑;color:#0D0B22;font-style:normal;text-align:left;font-weight:400;font-style: normal;"><tspan x="892" y="50.48956298828125"><tspan>undefined</tspan></tspan></text></g></g><g id="3e7d3b707cca"><rect x="883" y="76.48959350585938" rx="1px" ry="1px" width="69" height="29" style="fill: transparent; stroke:none;"></rect><g><text text-anchor="start" align="top" anchor="start" font-size="13px" font-weight="400" fill="rgb(13, 11, 34)" style="font-size:13px;font-family:微软雅黑;color:#0D0B22;font-style:normal;text-align:left;font-weight:400;font-style: normal;"><tspan x="892" y="96.97918701171875"><tspan>Boolean</tspan></tspan></text></g></g><g id="804a1193a71c"><rect x="883" y="122.97918701171875" rx="1px" ry="1px" width="69" height="29" style="fill: transparent; stroke:none;"></rect><g><text text-anchor="start" align="top" anchor="start" font-size="13px" font-weight="400" fill="rgb(13, 11, 34)" style="font-size:13px;font-family:微软雅黑;color:#0D0B22;font-style:normal;text-align:left;font-weight:400;font-style: normal;"><tspan x="892" y="143.46875"><tspan>Number</tspan></tspan></text></g></g><g id="352d1d999e40"><rect x="883" y="169.46875" rx="1px" ry="1px" width="55" height="29" style="fill: transparent; stroke:none;"></rect><g><text text-anchor="start" align="top" anchor="start" font-size="13px" font-weight="400" fill="rgb(13, 11, 34)" style="font-size:13px;font-family:微软雅黑;color:#0D0B22;font-style:normal;text-align:left;font-weight:400;font-style: normal;"><tspan x="892" y="189.95834350585938"><tspan>String</tspan></tspan></text></g></g><g id="399aba52616e"><rect x="883" y="215.95834350585938" rx="1px" ry="1px" width="55" height="29" style="fill: transparent; stroke:none;"></rect><g><text text-anchor="start" align="top" anchor="start" font-size="13px" font-weight="400" fill="rgb(13, 11, 34)" style="font-size:13px;font-family:微软雅黑;color:#0D0B22;font-style:normal;text-align:left;font-weight:400;font-style: normal;"><tspan x="892" y="236.44793701171875"><tspan>BigInt</tspan></tspan></text></g></g><g id="f02f783f5d39"><rect x="883" y="262.44793701171875" rx="1px" ry="1px" width="65" height="29" style="fill: transparent; stroke:none;"></rect><g><text text-anchor="start" align="top" anchor="start" font-size="13px" font-weight="400" fill="rgb(13, 11, 34)" style="font-size:13px;font-family:微软雅黑;color:#0D0B22;font-style:normal;text-align:left;font-weight:400;font-style: normal;"><tspan x="892" y="282.9375"><tspan>Symbol</tspan></tspan><tspan x="892" y="301.1375"><tspan> </tspan></tspan></text></g></g><g id="c260a05afa51"><rect x="737" y="332.1770935058594" rx="1px" ry="1px" width="70" height="29" style="fill: transparent; stroke:none;"></rect><g><text text-anchor="start" align="top" anchor="start" font-size="13px" font-weight="400" fill="rgb(13, 11, 34)" style="font-size:13px;font-family:微软雅黑;color:#0D0B22;font-style:normal;text-align:left;font-weight:400;font-style: normal;"><tspan x="746" y="352.66668701171875"><tspan>其他类型</tspan></tspan></text></g></g><g id="c57fe4f5eeb8"><rect x="883" y="308.9375" rx="1px" ry="1px" width="48" height="29" style="fill: transparent; stroke:none;"></rect><g><text text-anchor="start" align="top" anchor="start" font-size="13px" font-weight="400" fill="rgb(13, 11, 34)" style="font-size:13px;font-family:微软雅黑;color:#0D0B22;font-style:normal;text-align:left;font-weight:400;font-style: normal;"><tspan x="892" y="329.4270935058594"><tspan>null</tspan></tspan></text></g></g><g id="46547200d94b"><rect x="883" y="355.4270935058594" rx="1px" ry="1px" width="59" height="29" style="fill: transparent; stroke:none;"></rect><g><text text-anchor="start" align="top" anchor="start" font-size="13px" font-weight="400" fill="rgb(13, 11, 34)" style="font-size:13px;font-family:微软雅黑;color:#0D0B22;font-style:normal;text-align:left;font-weight:400;font-style: normal;"><tspan x="892" y="375.91668701171875"><tspan>Object</tspan></tspan></text></g></g><g id="d7ee7f0e2968"><rect x="613" y="401.91668701171875" rx="1px" ry="1px" width="48" height="29" style="fill: transparent; stroke:none;"></rect><g><text text-anchor="start" align="top" anchor="start" font-size="13px" font-weight="400" fill="rgb(13, 11, 34)" style="font-size:13px;font-family:微软雅黑;color:#0D0B22;font-style:normal;text-align:left;font-weight:400;font-style: normal;"><tspan x="622" y="422.40626525878906"><tspan>实例</tspan></tspan></text></g></g><g id="73dd6303a183"><rect x="737" y="401.91668701171875" rx="1px" ry="1px" width="83" height="29" style="fill: transparent; stroke:none;"></rect><g><text text-anchor="start" align="top" anchor="start" font-size="13px" font-weight="400" fill="rgb(13, 11, 34)" style="font-size:13px;font-family:微软雅黑;color:#0D0B22;font-style:normal;text-align:left;font-weight:400;font-style: normal;"><tspan x="746" y="422.40626525878906"><tspan>应用和机制</tspan></tspan></text></g></g><g id="d0da427c945d"><rect x="467" y="727.3437805175781" rx="1px" ry="1px" width="122" height="30" style="fill: transparent; stroke:none;"></rect><g><text text-anchor="start" align="top" anchor="start" font-size="13px" font-weight="400" fill="rgb(13, 11, 34)" style="font-size:13px;font-family:微软雅黑;color:#0D0B22;font-style:normal;text-align:left;font-weight:400;font-style: normal;"><tspan x="476" y="747.8333587646484"><tspan>执行过程（算法）</tspan></tspan></text></g></g><g id="fb537ea4d6b6"><rect x="665" y="448.40626525878906" rx="1px" ry="1px" width="70" height="29" style="fill: transparent; stroke:none;"></rect><g><text text-anchor="start" align="top" anchor="start" font-size="13px" font-weight="400" fill="rgb(13, 11, 34)" style="font-size:13px;font-family:微软雅黑;color:#0D0B22;font-style:normal;text-align:left;font-weight:400;font-style: normal;"><tspan x="674" y="468.8958511352539"><tspan>事件循环</tspan></tspan></text></g></g><g id="08f2e5f19339"><rect x="665" y="494.8958511352539" rx="1px" ry="1px" width="57" height="29" style="fill: transparent; stroke:none;"></rect><g><text text-anchor="start" align="top" anchor="start" font-size="13px" font-weight="400" fill="rgb(13, 11, 34)" style="font-size:13px;font-family:微软雅黑;color:#0D0B22;font-style:normal;text-align:left;font-weight:400;font-style: normal;"><tspan x="674" y="515.3854370117188"><tspan>微任务</tspan></tspan></text></g></g><g id="9cea02fe7efa"><rect x="665" y="541.3854370117188" rx="1px" ry="1px" width="70" height="29" style="fill: transparent; stroke:none;"></rect><g><text text-anchor="start" align="top" anchor="start" font-size="13px" font-weight="400" fill="rgb(13, 11, 34)" style="font-size:13px;font-family:微软雅黑;color:#0D0B22;font-style:normal;text-align:left;font-weight:400;font-style: normal;"><tspan x="674" y="561.8750190734863"><tspan>函数执行</tspan></tspan></text></g></g><g id="bb97ae4edd2e"><rect x="665" y="587.875020980835" rx="1px" ry="1px" width="70" height="29" style="fill: transparent; stroke:none;"></rect><g><text text-anchor="start" align="top" anchor="start" font-size="13px" font-weight="400" fill="rgb(13, 11, 34)" style="font-size:13px;font-family:微软雅黑;color:#0D0B22;font-style:normal;text-align:left;font-weight:400;font-style: normal;"><tspan x="674" y="608.3646049499512"><tspan>语句执行</tspan></tspan></text></g></g><g id="ed7d55ee05d5"><rect x="665" y="634.3646087646484" rx="1px" ry="1px" width="83" height="29" style="fill: transparent; stroke:none;"></rect><g><text text-anchor="start" align="top" anchor="start" font-size="13px" font-weight="400" fill="rgb(13, 11, 34)" style="font-size:13px;font-family:微软雅黑;color:#0D0B22;font-style:normal;text-align:left;font-weight:400;font-style: normal;"><tspan x="674" y="654.8541870117188"><tspan>执行上下文</tspan></tspan></text></g></g><g id="4323319ae523"><rect x="665" y="680.8541870117188" rx="1px" ry="1px" width="57" height="29" style="fill: transparent; stroke:none;"></rect><g><text text-anchor="start" align="top" anchor="start" font-size="13px" font-weight="400" fill="rgb(13, 11, 34)" style="font-size:13px;font-family:微软雅黑;color:#0D0B22;font-style:normal;text-align:left;font-weight:400;font-style: normal;"><tspan x="674" y="701.3437728881836"><tspan>作用域</tspan></tspan></text></g></g><g id="c40a99dc3a49"><rect x="665" y="727.3437805175781" rx="1px" ry="1px" width="67" height="29" style="fill: transparent; stroke:none;"></rect><g><text text-anchor="start" align="top" anchor="start" font-size="13px" font-weight="400" fill="rgb(13, 11, 34)" style="font-size:13px;font-family:微软雅黑;color:#0D0B22;font-style:normal;text-align:left;font-weight:400;font-style: normal;"><tspan x="674" y="747.8333587646484"><tspan>this绑定</tspan></tspan></text></g></g><g id="2f702663f4b4"><rect x="665" y="773.8333587646484" rx="1px" ry="1px" width="70" height="29" style="fill: transparent; stroke:none;"></rect><g><text text-anchor="start" align="top" anchor="start" font-size="13px" font-weight="400" fill="rgb(13, 11, 34)" style="font-size:13px;font-family:微软雅黑;color:#0D0B22;font-style:normal;text-align:left;font-weight:400;font-style: normal;"><tspan x="674" y="794.3229370117188"><tspan>变量提升</tspan></tspan></text></g></g><g id="bfe6ef8507f6"><rect x="665" y="820.3229370117188" rx="1px" ry="1px" width="161" height="29" style="fill: transparent; stroke:none;"></rect><g><text text-anchor="start" align="top" anchor="start" font-size="13px" font-weight="400" fill="rgb(13, 11, 34)" style="font-size:13px;font-family:微软雅黑;color:#0D0B22;font-style:normal;text-align:left;font-weight:400;font-style: normal;"><tspan x="674" y="840.8125305175781"><tspan>立即执行函数表达式 IIFE</tspan></tspan></text></g></g><g id="d3d340afc18b"><rect x="665" y="866.8125305175781" rx="1px" ry="1px" width="48" height="29" style="fill: transparent; stroke:none;"></rect><g><text text-anchor="start" align="top" anchor="start" font-size="13px" font-weight="400" fill="rgb(13, 11, 34)" style="font-size:13px;font-family:微软雅黑;color:#0D0B22;font-style:normal;text-align:left;font-weight:400;font-style: normal;"><tspan x="674" y="887.3021240234375"><tspan>闭包</tspan></tspan></text></g></g><g id="ec87a3ad89c2"><rect x="665" y="913.3021240234375" rx="1px" ry="1px" width="96" height="29" style="fill: transparent; stroke:none;"></rect><g><text text-anchor="start" align="top" anchor="start" font-size="13px" font-weight="400" fill="rgb(13, 11, 34)" style="font-size:13px;font-family:微软雅黑;color:#0D0B22;font-style:normal;text-align:left;font-weight:400;font-style: normal;"><tspan x="674" y="933.7916870117188"><tspan>原型链和继承</tspan></tspan></text></g></g><g id="f532ad4f3d43"><rect x="665" y="959.7916870117188" rx="1px" ry="1px" width="83" height="29" style="fill: transparent; stroke:none;"></rect><g><text text-anchor="start" align="top" anchor="start" font-size="13px" font-weight="400" fill="rgb(13, 11, 34)" style="font-size:13px;font-family:微软雅黑;color:#0D0B22;font-style:normal;text-align:left;font-weight:400;font-style: normal;"><tspan x="674" y="980.2812805175781"><tspan>浮点数精度</tspan></tspan></text></g></g><g id="94e4ab4407b9"><rect x="665" y="1006.2812805175781" rx="1px" ry="1px" width="70" height="29" style="fill: transparent; stroke:none;"></rect><g><text text-anchor="start" align="top" anchor="start" font-size="13px" font-weight="400" fill="rgb(13, 11, 34)" style="font-size:13px;font-family:微软雅黑;color:#0D0B22;font-style:normal;text-align:left;font-weight:400;font-style: normal;"><tspan x="674" y="1026.7708740234375"><tspan>类型转换</tspan></tspan></text></g></g><g transform="translate(315, 1175.0000610351562)" id="sdjakdjak0"><g id="subline_c52f28273491" transform="translate(0.5,-0.5)"></g><g transform="translate(0.5,0)"></g><g class="svg-summary-con" transform="translate(0.5,0.5)"></g><g class="svg-boundary-con" transform="translate(0.5,0.5)"></g></g><g transform="translate(315, 1067.0000305175781)" id="sdjakdjak1"><g id="subline_42c7afd9f653" transform="translate(0.5,-0.5)"><path id="line_ca34db9c4336" d="M 60 54 L 60 54 M 60 54 C 106 54 98 30 136 30 L 184 30" p="42c7afd9f653" stroke="#0FBAB0" fill="none" stroke-linecap="round" stroke-width="3"></path><path id="line_c4564733cf86" d="M 60 54 L 60 54 M 60 54 C 106 54 98 76 136 76 L 184 76" p="42c7afd9f653" stroke="#0FBAB0" fill="none" stroke-linecap="round" stroke-width="3"></path></g><g transform="translate(0.5,0)"></g><g class="svg-summary-con" transform="translate(0.5,0.5)"></g><g class="svg-boundary-con" transform="translate(0.5,0.5)"></g></g><g transform="translate(315, 30)" id="sdjakdjak2"><g id="subline_056d151a6067" transform="translate(0.5,-0.5)"><path id="line_7e6e95098039" d="M 76 519 L 76 519 M 76 519 C 122 519 114 216 152 216 L 222 216" p="056d151a6067" stroke="#3D5EC2" fill="none" stroke-linecap="round" stroke-width="3"></path><path id="line_7bd95d8e9d85" d="M 222 216 L 222 216 M 222 216 C 268 216 260 193 298 193 L 346 193" p="7e6e95098039" stroke="#3D5EC2" fill="none" stroke-linecap="round" stroke-width="3"></path><path id="line_601f18957f28" d="M 346 193 L 346 193 M 346 193 C 392 193 384 148 422 148 L 492 148" p="7bd95d8e9d85" stroke="#3D5EC2" fill="none" stroke-linecap="round" stroke-width="3"></path><path id="line_27bf7f0e90b4" d="M 492 148 L 492 148 M 492 148 C 538 148 530 30 568 30 L 649 30" p="601f18957f28" stroke="#3D5EC2" fill="none" stroke-linecap="round" stroke-width="3"></path><path id="line_3e7d3b707cca" d="M 492 148 L 492 148 M 492 148 C 538 148 530 76 568 76 L 637 76" p="601f18957f28" stroke="#3D5EC2" fill="none" stroke-linecap="round" stroke-width="3"></path><path id="line_804a1193a71c" d="M 492 148 L 492 148 M 492 148 C 538 148 530 123 568 123 L 637 123" p="601f18957f28" stroke="#3D5EC2" fill="none" stroke-linecap="round" stroke-width="3"></path><path id="line_352d1d999e40" d="M 492 148 L 492 148 M 492 148 C 538 148 530 169 568 169 L 623 169" p="601f18957f28" stroke="#3D5EC2" fill="none" stroke-linecap="round" stroke-width="3"></path><path id="line_399aba52616e" d="M 492 148 L 492 148 M 492 148 C 538 148 530 216 568 216 L 623 216" p="601f18957f28" stroke="#3D5EC2" fill="none" stroke-linecap="round" stroke-width="3"></path><path id="line_f02f783f5d39" d="M 492 148 L 492 148 M 492 148 C 538 148 530 262 568 262 L 633 262" p="601f18957f28" stroke="#3D5EC2" fill="none" stroke-linecap="round" stroke-width="3"></path><path id="line_c260a05afa51" d="M 346 193 L 346 193 M 346 193 C 392 193 384 332 422 332 L 492 332" p="7bd95d8e9d85" stroke="#3D5EC2" fill="none" stroke-linecap="round" stroke-width="3"></path><path id="line_c57fe4f5eeb8" d="M 492 332 L 492 332 M 492 332 C 538 332 530 309 568 309 L 616 309" p="c260a05afa51" stroke="#3D5EC2" fill="none" stroke-linecap="round" stroke-width="3"></path><path id="line_46547200d94b" d="M 492 332 L 492 332 M 492 332 C 538 332 530 355 568 355 L 627 355" p="c260a05afa51" stroke="#3D5EC2" fill="none" stroke-linecap="round" stroke-width="3"></path><path id="line_d7ee7f0e2968" d="M 222 216 L 222 216 M 222 216 C 268 216 260 402 298 402 L 346 402" p="7e6e95098039" stroke="#3D5EC2" fill="none" stroke-linecap="round" stroke-width="3"></path><path id="line_73dd6303a183" d="M 346 402 L 346 402 M 346 402 C 392 402 384 402 422 402 L 505 402" p="d7ee7f0e2968" stroke="#3D5EC2" fill="none" stroke-linecap="round" stroke-width="3"></path><path id="line_d0da427c945d" d="M 76 519 L 76 519 M 76 519 C 122 519 114 729 152 729 L 274 729" p="056d151a6067" stroke="#3D5EC2" fill="none" stroke-linecap="round" stroke-width="3"></path><path id="line_fb537ea4d6b6" d="M 274 729 L 274 729 M 274 729 C 320 729 312 448 350 448 L 420 448" p="d0da427c945d" stroke="#3D5EC2" fill="none" stroke-linecap="round" stroke-width="3"></path><path id="line_08f2e5f19339" d="M 274 729 L 274 729 M 274 729 C 320 729 312 495 350 495 L 407 495" p="d0da427c945d" stroke="#3D5EC2" fill="none" stroke-linecap="round" stroke-width="3"></path><path id="line_9cea02fe7efa" d="M 274 729 L 274 729 M 274 729 C 320 729 312 541 350 541 L 420 541" p="d0da427c945d" stroke="#3D5EC2" fill="none" stroke-linecap="round" stroke-width="3"></path><path id="line_bb97ae4edd2e" d="M 274 729 L 274 729 M 274 729 C 320 729 312 588 350 588 L 420 588" p="d0da427c945d" stroke="#3D5EC2" fill="none" stroke-linecap="round" stroke-width="3"></path><path id="line_ed7d55ee05d5" d="M 274 729 L 274 729 M 274 729 C 320 729 312 634 350 634 L 433 634" p="d0da427c945d" stroke="#3D5EC2" fill="none" stroke-linecap="round" stroke-width="3"></path><path id="line_4323319ae523" d="M 274 729 L 274 729 M 274 729 C 320 729 312 681 350 681 L 407 681" p="d0da427c945d" stroke="#3D5EC2" fill="none" stroke-linecap="round" stroke-width="3"></path><path id="line_c40a99dc3a49" d="M 274 729 L 274 729 M 274 729 C 320 729 312 728 350 728 L 417 728" p="d0da427c945d" stroke="#3D5EC2" fill="none" stroke-linecap="round" stroke-width="3"></path><path id="line_2f702663f4b4" d="M 274 729 L 274 729 M 274 729 C 320 729 312 774 350 774 L 420 774" p="d0da427c945d" stroke="#3D5EC2" fill="none" stroke-linecap="round" stroke-width="3"></path><path id="line_bfe6ef8507f6" d="M 274 729 L 274 729 M 274 729 C 320 729 312 820 350 820 L 511 820" p="d0da427c945d" stroke="#3D5EC2" fill="none" stroke-linecap="round" stroke-width="3"></path><path id="line_d3d340afc18b" d="M 274 729 L 274 729 M 274 729 C 320 729 312 867 350 867 L 398 867" p="d0da427c945d" stroke="#3D5EC2" fill="none" stroke-linecap="round" stroke-width="3"></path><path id="line_ec87a3ad89c2" d="M 274 729 L 274 729 M 274 729 C 320 729 312 913 350 913 L 446 913" p="d0da427c945d" stroke="#3D5EC2" fill="none" stroke-linecap="round" stroke-width="3"></path><path id="line_f532ad4f3d43" d="M 274 729 L 274 729 M 274 729 C 320 729 312 960 350 960 L 433 960" p="d0da427c945d" stroke="#3D5EC2" fill="none" stroke-linecap="round" stroke-width="3"></path><path id="line_94e4ab4407b9" d="M 274 729 L 274 729 M 274 729 C 320 729 312 1006 350 1006 L 420 1006" p="d0da427c945d" stroke="#3D5EC2" fill="none" stroke-linecap="round" stroke-width="3"></path></g><g transform="translate(0.5,0)"></g><g class="svg-summary-con" transform="translate(0.5,0.5)"></g><g class="svg-boundary-con" transform="translate(0.5,0.5)"></g></g><g transform="translate(30, 598.000020980835)" id="sdjakdjak3"><g id="subline_root" transform="translate(0.5,-0.5)"></g><g transform="translate(0.5,0)"></g><g class="svg-summary-con" transform="translate(0.5,0.5)"></g><g class="svg-boundary-con" transform="translate(0.5,0.5)"></g></g><g id="root"><rect x="30" y="598.000020980835" rx="7px" ry="7px" width="185" height="67" style="fill: #ffffff; stroke:none;"></rect><g><text text-anchor="start" align="top" anchor="start" font-size="24px" font-weight="normal" fill="rgb(42, 46, 54)" style="font-size:24px;font-family:微软雅黑;color:#2A2E36;font-style:normal;text-align:left;font-weight:normal;font-style: normal;"><tspan x="68" y="640.1875228881836"><tspan>javascript</tspan></tspan></text></g></g></svg>
