<?xml version="1.0" standalone="no"?><?xml-stylesheet type="text/css" href="https://www.processon.com/themes/default/mind/icons/icons.css" ?><!DOCTYPE svg PUBLIC "-//W3C//DTD SVG 1.1//EN" "http://www.w3.org/Graphics/SVG/1.1/DTD/svg11.dtd">
<svg xmlns="http://www.w3.org/2000/svg" version="1.1" xlink="http://www.w3.org/1999/xlink" id="mind-svg-con" width="667.2625122070312px" height="889.5249938964844px" style="position: absolute; left: 0px; top: 0px; width: 667.263px; height: 889.525px; background: rgb(247, 247, 247); z-index: 999;"><defs></defs><g id="svgbackgroundid"><defs></defs><rect x="0" y="0" width="667.2625122070312" height="889.5249938964844" fill="#F7F7F7"></rect></g><g transform="translate(-9911.5, -9478.000396728516)" id="sdjakdjak3"><defs></defs><g class="svg-topic-con" transform="translate(0.5,0.5)"><path part="right" sub="true" id="line_d47b733c9300" d="M 10000 9935.50039100647 L 10053.5 9935.50039100647 C 10093.5 9935.50039100647 10093.5 9768 10158.5 9768 L 10218.5 9768" stroke="#0D7C82" fill="none" stroke-linecap="round" stroke-width="3"></path><path part="right" sub="true" id="line_3825c6182e49" d="M 10000 9935.50039100647 L 10053.5 9935.50039100647 C 10093.5 9935.50039100647 10093.5 10198.5 10158.5 10198.5 L 10218.5 10198.5" stroke="#F88A35" fill="none" stroke-linecap="round" stroke-width="3"></path></g><g class="svg-connection-con" transform="translate(0.5,0.5)"></g><g class="svg-freesums-con" transform="translate(0.5,0.5)"></g><g class="svg-freebos-con" transform="translate(0.5,0.5)"></g></g><g id="3825c6182e49"><rect x="247" y="689.9750061035156" rx="1px" ry="1px" width="60" height="30" style="fill: transparent; stroke:none;"></rect><g><text text-anchor="start" align="top" anchor="start" font-size="16px" font-weight="normal" fill="rgb(13, 11, 34)" style="font-size:16px;font-family:微软雅黑;color:#0D0B22;font-style:normal;text-align:left;font-weight:normal;font-style: normal;"><tspan x="261" y="711.25"><tspan>原理</tspan></tspan></text></g></g><g id="808972974ce0"><rect x="383" y="552" rx="1px" ry="1px" width="56" height="29" style="fill: transparent; stroke:none;"></rect><g><text text-anchor="start" align="top" anchor="start" font-size="13px" font-weight="400" fill="rgb(13, 11, 34)" style="font-size:13px;font-family:微软雅黑;color:#0D0B22;font-style:normal;text-align:left;font-weight:400;font-style: normal;"><tspan x="392" y="572.0874938964844"><tspan>mvvm</tspan></tspan></text></g></g><g id="5560f7975164"><rect x="383" y="598.0874938964844" rx="1px" ry="1px" width="57" height="29" style="fill: transparent; stroke:none;"></rect><g><text text-anchor="start" align="top" anchor="start" font-size="13px" font-weight="400" fill="rgb(13, 11, 34)" style="font-size:13px;font-family:微软雅黑;color:#0D0B22;font-style:normal;text-align:left;font-weight:400;font-style: normal;"><tspan x="392" y="618.1750030517578"><tspan>初始化</tspan></tspan></text></g></g><g id="1a9e0a040df6"><rect x="383" y="644.1750030517578" rx="1px" ry="1px" width="57" height="29" style="fill: transparent; stroke:none;"></rect><g><text text-anchor="start" align="top" anchor="start" font-size="13px" font-weight="400" fill="rgb(13, 11, 34)" style="font-size:13px;font-family:微软雅黑;color:#0D0B22;font-style:normal;text-align:left;font-weight:400;font-style: normal;"><tspan x="392" y="664.2624969482422"><tspan>响应式</tspan></tspan></text></g></g><g id="535954f3f473"><rect x="383" y="690.2625122070312" rx="1px" ry="1px" width="48" height="29" style="fill: transparent; stroke:none;"></rect><g><text text-anchor="start" align="top" anchor="start" font-size="13px" font-weight="400" fill="rgb(13, 11, 34)" style="font-size:13px;font-family:微软雅黑;color:#0D0B22;font-style:normal;text-align:left;font-weight:400;font-style: normal;"><tspan x="392" y="710.3500061035156"><tspan>组件</tspan></tspan></text></g></g><g id="f425ac3daf5e"><rect x="383" y="736.3500061035156" rx="1px" ry="1px" width="57" height="29" style="fill: transparent; stroke:none;"></rect><g><text text-anchor="start" align="top" anchor="start" font-size="13px" font-weight="400" fill="rgb(13, 11, 34)" style="font-size:13px;font-family:微软雅黑;color:#0D0B22;font-style:normal;text-align:left;font-weight:400;font-style: normal;"><tspan x="392" y="756.4375"><tspan>编译器</tspan></tspan></text></g></g><g id="dcb748065992"><rect x="383" y="782.4375" rx="1px" ry="1px" width="48" height="29" style="fill: transparent; stroke:none;"></rect><g><text text-anchor="start" align="top" anchor="start" font-size="13px" font-weight="400" fill="rgb(13, 11, 34)" style="font-size:13px;font-family:微软雅黑;color:#0D0B22;font-style:normal;text-align:left;font-weight:400;font-style: normal;"><tspan x="392" y="802.5249938964844"><tspan>diff</tspan></tspan></text></g></g><g id="f4ec9f0b7f5f"><rect x="383" y="828.5249938964844" rx="1px" ry="1px" width="70" height="29" style="fill: transparent; stroke:none;"></rect><g><text text-anchor="start" align="top" anchor="start" font-size="13px" font-weight="400" fill="rgb(13, 11, 34)" style="font-size:13px;font-family:微软雅黑;color:#0D0B22;font-style:normal;text-align:left;font-weight:400;font-style: normal;"><tspan x="392" y="848.6124877929688"><tspan>性能优化</tspan></tspan></text></g></g><g id="d47b733c9300"><rect x="247" y="260.1499938964844" rx="1px" ry="1px" width="60" height="29" style="fill: transparent; stroke:none;"></rect><g><text text-anchor="start" align="top" anchor="start" font-size="16px" font-weight="normal" fill="rgb(13, 11, 34)" style="font-size:16px;font-family:微软雅黑;color:#0D0B22;font-style:normal;text-align:left;font-weight:normal;font-style: normal;"><tspan x="261" y="281.42498779296875"><tspan>用法</tspan></tspan></text></g></g><g id="70faf3f485d1"><rect x="383" y="168.2624969482422" rx="1px" ry="1px" width="48" height="29" style="fill: transparent; stroke:none;"></rect><g><text text-anchor="start" align="top" anchor="start" font-size="13px" font-weight="400" fill="rgb(13, 11, 34)" style="font-size:13px;font-family:微软雅黑;color:#0D0B22;font-style:normal;text-align:left;font-weight:400;font-style: normal;"><tspan x="392" y="188.34999084472656"><tspan>核心</tspan></tspan></text></g></g><g id="da8e792f8847"><rect x="507" y="30" rx="1px" ry="1px" width="70" height="29" style="fill: transparent; stroke:none;"></rect><g><text text-anchor="start" align="top" anchor="start" font-size="13px" font-weight="400" fill="rgb(13, 11, 34)" style="font-size:13px;font-family:微软雅黑;color:#0D0B22;font-style:normal;text-align:left;font-weight:400;font-style: normal;"><tspan x="516" y="50.087493896484375"><tspan>生命周期</tspan></tspan></text></g></g><g id="f2f01d928a46"><rect x="507" y="76.08749389648438" rx="1px" ry="1px" width="48" height="29" style="fill: transparent; stroke:none;"></rect><g><text text-anchor="start" align="top" anchor="start" font-size="13px" font-weight="400" fill="rgb(13, 11, 34)" style="font-size:13px;font-family:微软雅黑;color:#0D0B22;font-style:normal;text-align:left;font-weight:400;font-style: normal;"><tspan x="516" y="96.17498779296875"><tspan>指令</tspan></tspan></text></g></g><g id="090c2661b845"><rect x="507" y="122.17498779296875" rx="1px" ry="1px" width="122" height="29" style="fill: transparent; stroke:none;"></rect><g><text text-anchor="start" align="top" anchor="start" font-size="13px" font-weight="400" fill="rgb(13, 11, 34)" style="font-size:13px;font-family:微软雅黑;color:#0D0B22;font-style:normal;text-align:left;font-weight:400;font-style: normal;"><tspan x="516" y="142.26248168945312"><tspan>computed watch</tspan></tspan></text></g></g><g id="5ae089336374"><rect x="507" y="168.2624969482422" rx="1px" ry="1px" width="70" height="29" style="fill: transparent; stroke:none;"></rect><g><text text-anchor="start" align="top" anchor="start" font-size="13px" font-weight="400" fill="rgb(13, 11, 34)" style="font-size:13px;font-family:微软雅黑;color:#0D0B22;font-style:normal;text-align:left;font-weight:400;font-style: normal;"><tspan x="516" y="188.34999084472656"><tspan>组件通信</tspan></tspan></text></g></g><g id="fd2c66cde066"><rect x="507" y="214.34999084472656" rx="1px" ry="1px" width="48" height="29" style="fill: transparent; stroke:none;"></rect><g><text text-anchor="start" align="top" anchor="start" font-size="13px" font-weight="400" fill="rgb(13, 11, 34)" style="font-size:13px;font-family:微软雅黑;color:#0D0B22;font-style:normal;text-align:left;font-weight:400;font-style: normal;"><tspan x="516" y="234.43748474121094"><tspan>插槽</tspan></tspan></text></g></g><g id="37faa539eb11"><rect x="507" y="260.43748474121094" rx="1px" ry="1px" width="82" height="29" style="fill: transparent; stroke:none;"></rect><g><text text-anchor="start" align="top" anchor="start" font-size="13px" font-weight="400" fill="rgb(13, 11, 34)" style="font-size:13px;font-family:微软雅黑;color:#0D0B22;font-style:normal;text-align:left;font-weight:400;font-style: normal;"><tspan x="516" y="280.5249938964844"><tspan>keep-alive</tspan></tspan></text></g></g><g id="d253d4787f34"><rect x="507" y="306.5249938964844" rx="1px" ry="1px" width="77" height="29" style="fill: transparent; stroke:none;"></rect><g><text text-anchor="start" align="top" anchor="start" font-size="13px" font-weight="400" fill="rgb(13, 11, 34)" style="font-size:13px;font-family:微软雅黑;color:#0D0B22;font-style:normal;text-align:left;font-weight:400;font-style: normal;"><tspan x="516" y="326.6124954223633"><tspan>transition</tspan></tspan></text></g></g><g id="78f4e8439c73"><rect x="383" y="398.69999384880066" rx="1px" ry="1px" width="84" height="28" style="fill: transparent; stroke:none;"></rect><g><text text-anchor="start" align="top" anchor="start" font-size="13px" font-weight="400" fill="rgb(13, 11, 34)" style="font-size:13px;font-family:微软雅黑;color:#0D0B22;font-style:normal;text-align:left;font-weight:400;font-style: normal;"><tspan x="392" y="418.7874937057495"><tspan>vue-router</tspan></tspan></text></g></g><g id="badbda3d7b77"><rect x="543.2625122070312" y="352.612491607666" rx="1px" ry="1px" width="70" height="29" style="fill: transparent; stroke:none;"></rect><g><text text-anchor="start" align="top" anchor="start" font-size="13px" font-weight="400" fill="rgb(13, 11, 34)" style="font-size:13px;font-family:微软雅黑;color:#0D0B22;font-style:normal;text-align:left;font-weight:400;font-style: normal;"><tspan x="552.2625122070312" y="372.6999931335449"><tspan>导航钩子</tspan></tspan></text></g></g><g id="7eac86b193db"><rect x="543.2625122070312" y="398.69999384880066" rx="1px" ry="1px" width="94" height="29" style="fill: transparent; stroke:none;"></rect><g><text text-anchor="start" align="top" anchor="start" font-size="13px" font-weight="400" fill="rgb(13, 11, 34)" style="font-size:13px;font-family:微软雅黑;color:#0D0B22;font-style:normal;text-align:left;font-weight:400;font-style: normal;"><tspan x="552.2625122070312" y="418.7874937057495"><tspan>hash history</tspan></tspan></text></g></g><g id="b7bad54c0458"><rect x="543.2625122070312" y="444.7874946594238" rx="1px" ry="1px" width="83" height="29" style="fill: transparent; stroke:none;"></rect><g><text text-anchor="start" align="top" anchor="start" font-size="13px" font-weight="400" fill="rgb(13, 11, 34)" style="font-size:13px;font-family:微软雅黑;color:#0D0B22;font-style:normal;text-align:left;font-weight:400;font-style: normal;"><tspan x="552.2625122070312" y="464.87499618530273"><tspan>路由懒加载</tspan></tspan></text></g></g><g id="66b98dd9076b"><rect x="383" y="490.87499237060547" rx="1px" ry="1px" width="48" height="29" style="fill: transparent; stroke:none;"></rect><g><text text-anchor="start" align="top" anchor="start" font-size="13px" font-weight="400" fill="rgb(13, 11, 34)" style="font-size:13px;font-family:微软雅黑;color:#0D0B22;font-style:normal;text-align:left;font-weight:400;font-style: normal;"><tspan x="392" y="510.9624938964844"><tspan>vuex</tspan></tspan></text></g></g><g transform="translate(247, 552)" id="sdjakdjak0"><g id="subline_3825c6182e49" transform="translate(0.5,-0.5)"><path id="line_808972974ce0" d="M 60 170 L 60 170 M 60 170 C 106 170 98 30 136 30 L 192 30" p="3825c6182e49" stroke="#F88A35" fill="none" stroke-linecap="round" stroke-width="3"></path><path id="line_5560f7975164" d="M 60 170 L 60 170 M 60 170 C 106 170 98 76 136 76 L 193 76" p="3825c6182e49" stroke="#F88A35" fill="none" stroke-linecap="round" stroke-width="3"></path><path id="line_1a9e0a040df6" d="M 60 170 L 60 170 M 60 170 C 106 170 98 122 136 122 L 193 122" p="3825c6182e49" stroke="#F88A35" fill="none" stroke-linecap="round" stroke-width="3"></path><path id="line_535954f3f473" d="M 60 170 L 60 170 M 60 170 C 106 170 98 169 136 169 L 184 169" p="3825c6182e49" stroke="#F88A35" fill="none" stroke-linecap="round" stroke-width="3"></path><path id="line_f425ac3daf5e" d="M 60 170 L 60 170 M 60 170 C 106 170 98 214 136 214 L 193 214" p="3825c6182e49" stroke="#F88A35" fill="none" stroke-linecap="round" stroke-width="3"></path><path id="line_dcb748065992" d="M 60 170 L 60 170 M 60 170 C 106 170 98 260 136 260 L 184 260" p="3825c6182e49" stroke="#F88A35" fill="none" stroke-linecap="round" stroke-width="3"></path><path id="line_f4ec9f0b7f5f" d="M 60 170 L 60 170 M 60 170 C 106 170 98 307 136 307 L 206 307" p="3825c6182e49" stroke="#F88A35" fill="none" stroke-linecap="round" stroke-width="3"></path></g><g transform="translate(0.5,0)"></g><g class="svg-summary-con" transform="translate(0.5,0.5)"></g><g class="svg-boundary-con" transform="translate(0.5,0.5)"></g></g><g transform="translate(247, 30)" id="sdjakdjak1"><g id="subline_d47b733c9300" transform="translate(0.5,-0.5)"><path id="line_70faf3f485d1" d="M 60 261 L 60 261 M 60 261 C 106 261 98 168 136 168 L 184 168" p="d47b733c9300" stroke="#0D7C82" fill="none" stroke-linecap="round" stroke-width="3"></path><path id="line_da8e792f8847" d="M 184 168 L 184 168 M 184 168 C 230 168 222 30 260 30 L 330 30" p="70faf3f485d1" stroke="#0D7C82" fill="none" stroke-linecap="round" stroke-width="3"></path><path id="line_f2f01d928a46" d="M 184 168 L 184 168 M 184 168 C 230 168 222 76 260 76 L 308 76" p="70faf3f485d1" stroke="#0D7C82" fill="none" stroke-linecap="round" stroke-width="3"></path><path id="line_090c2661b845" d="M 184 168 L 184 168 M 184 168 C 230 168 222 122 260 122 L 382 122" p="70faf3f485d1" stroke="#0D7C82" fill="none" stroke-linecap="round" stroke-width="3"></path><path id="line_5ae089336374" d="M 184 168 L 184 168 M 184 168 C 230 168 222 168 260 168 L 330 168" p="70faf3f485d1" stroke="#0D7C82" fill="none" stroke-linecap="round" stroke-width="3"></path><path id="line_fd2c66cde066" d="M 184 168 L 184 168 M 184 168 C 230 168 222 214 260 214 L 308 214" p="70faf3f485d1" stroke="#0D7C82" fill="none" stroke-linecap="round" stroke-width="3"></path><path id="line_37faa539eb11" d="M 184 168 L 184 168 M 184 168 C 230 168 222 260 260 260 L 342 260" p="70faf3f485d1" stroke="#0D7C82" fill="none" stroke-linecap="round" stroke-width="3"></path><path id="line_d253d4787f34" d="M 184 168 L 184 168 M 184 168 C 230 168 222 307 260 307 L 337 307" p="70faf3f485d1" stroke="#0D7C82" fill="none" stroke-linecap="round" stroke-width="3"></path><path id="line_78f4e8439c73" d="M 60 261 L 60 261 M 60 261 C 106 261 98 398 136 398 L 220 398" p="d47b733c9300" stroke="#0D7C82" fill="none" stroke-linecap="round" stroke-width="3"></path><path id="line_badbda3d7b77" d="M 220 398 L 220 398 M 220 398 C 266.26251220703125 398 258.1312561035156 353 296.26251220703125 353 L 366.26251220703125 353" p="78f4e8439c73" stroke="#0D7C82" fill="none" stroke-linecap="round" stroke-width="3"></path><path id="line_7eac86b193db" d="M 220 398 L 220 398 M 220 398 C 266.26251220703125 398 258.1312561035156 398 296.26251220703125 398 L 390.26251220703125 398" p="78f4e8439c73" stroke="#0D7C82" fill="none" stroke-linecap="round" stroke-width="3"></path><path id="line_b7bad54c0458" d="M 220 398 L 220 398 M 220 398 C 266.26251220703125 398 258.1312561035156 445 296.26251220703125 445 L 379.26251220703125 445" p="78f4e8439c73" stroke="#0D7C82" fill="none" stroke-linecap="round" stroke-width="3"></path><path id="line_66b98dd9076b" d="M 60 261 L 60 261 M 60 261 C 106 261 98 491 136 491 L 184 491" p="d47b733c9300" stroke="#0D7C82" fill="none" stroke-linecap="round" stroke-width="3"></path></g><g transform="translate(0.5,0)"></g><g class="svg-summary-con" transform="translate(0.5,0.5)"></g><g class="svg-boundary-con" transform="translate(0.5,0.5)"></g></g><g transform="translate(30, 423.9999942779541)" id="sdjakdjak2"><g id="subline_root" transform="translate(0.5,-0.5)"></g><g transform="translate(0.5,0)"></g><g class="svg-summary-con" transform="translate(0.5,0.5)"></g><g class="svg-boundary-con" transform="translate(0.5,0.5)"></g></g><g id="root"><rect x="30" y="423.9999942779541" rx="7px" ry="7px" width="117" height="68" style="fill: #ffffff; stroke:none;"></rect><g><text text-anchor="start" align="top" anchor="start" font-size="24px" font-weight="normal" fill="rgb(42, 46, 54)" style="font-size:24px;font-family:微软雅黑;color:#2A2E36;font-style:normal;text-align:left;font-weight:normal;font-style: normal;"><tspan x="68" y="466.3249931335449"><tspan>vue</tspan></tspan></text></g></g></svg>
